<?xml version="1.0" encoding="UTF-8" standalone="no"?>
<svg
   xmlns:dc="http://purl.org/dc/elements/1.1/"
   xmlns:cc="http://creativecommons.org/ns#"
   xmlns:rdf="http://www.w3.org/1999/02/22-rdf-syntax-ns#"
   xmlns:svg="http://www.w3.org/2000/svg"
   xmlns="http://www.w3.org/2000/svg"
   xmlns:sodipodi="http://sodipodi.sourceforge.net/DTD/sodipodi-0.dtd"
   xmlns:inkscape="http://www.inkscape.org/namespaces/inkscape"
   version="1.1"
   id="svg196"
   xml:space="preserve"
   width="366.66718"
   height="354.89999"
   viewBox="0 0 366.66718 354.89999"
   sodipodi:docname="mathatistics.svg"
   inkscape:version="1.0.2 (e86c870879, 2021-01-15)"><metadata
     id="metadata202"><rdf:RDF><cc:Work
         rdf:about=""><dc:format>image/svg+xml</dc:format><dc:type
           rdf:resource="http://purl.org/dc/dcmitype/StillImage" /><dc:title></dc:title></cc:Work></rdf:RDF></metadata><defs
     id="defs200"><clipPath
       clipPathUnits="userSpaceOnUse"
       id="clipPath212"><path
         d="M 0,266.175 H 1366.201 V 0 H 0 Z"
         id="path210" /></clipPath><clipPath
       clipPathUnits="userSpaceOnUse"
       id="clipPath534"><rect
         style="fill:#0000ff;fill-rule:evenodd;stroke-width:0.75"
         id="rect536"
         width="275.0004"
         height="266.17529"
         x="0"
         y="-266.1752"
         transform="scale(1,-1)" /></clipPath></defs><sodipodi:namedview
     pagecolor="#ffffff"
     bordercolor="#666666"
     borderopacity="1"
     objecttolerance="10"
     gridtolerance="10"
     guidetolerance="10"
     inkscape:pageopacity="0"
     inkscape:pageshadow="2"
     inkscape:window-width="950"
     inkscape:window-height="1162"
     id="namedview198"
     showgrid="false"
     inkscape:zoom="0.44521301"
     inkscape:cx="599.35266"
     inkscape:cy="724.13004"
     inkscape:window-x="961"
     inkscape:window-y="29"
     inkscape:window-maximized="0"
     inkscape:current-layer="g204"
     inkscape:document-rotation="0"
     fit-margin-top="0"
     fit-margin-left="0"
     fit-margin-right="0"
     fit-margin-bottom="0" /><g
     id="g204"
     inkscape:groupmode="layer"
     inkscape:label="Mathatistics Logo"
     transform="matrix(1.3333333,0,0,-1.3333333,-311.44733,901.58004)"><g
       id="g206"
       clip-path="url(#clipPath534)"
       transform="translate(233.5855,410.01005)"><g
         id="g208"
         clip-path="url(#clipPath212)"><g
           id="g214"
           transform="translate(337.0352,170.4389)"><path
             d="m 0,0 c 0,0 0,0.529 -0.223,1.059 z m 1.336,51.691 c 0.668,1.94 1.56,3.176 4.455,3.528 2.896,0 8.686,-0.352 8.686,-2.823 C 14.254,49.397 14.254,32.461 8.687,19.759 7.795,17.818 -5.055,-119.421 -5.055,-127.36 c 0.223,-1.411 1.337,-2.293 2.451,-2.293 3.34,0 18.408,63.216 30.553,101.22 7.521,23.534 23.723,63.364 24.391,64.952 1.114,2.47 4.454,5.645 8.018,5.645 6.905,0 6.236,-8.291 6.459,-11.997 1.559,-24.521 -1.336,-90.15 13.586,-90.15 4.9,0 13.587,13.232 25.39,47.986 8.687,25.405 16.037,54.161 16.482,58.219 0,0 -0.222,0.882 -0.222,1.941 0,2.469 0.89,5.292 6.681,5.292 0.891,0 1.782,-0.529 1.782,-2.823 0,-8.115 -4.231,-13.937 -4.231,-45.516 0,-55.396 32.072,-125.964 89.311,-125.964 7.324,0 192.064,36.703 374.105,37.134 216.539,0.512 435.735,-35.233 438.154,-35.233 1.336,0 0,-0.53 0,-1.588 0,-0.64 -218.239,29.233 -439.112,27.258 -144.281,-1.291 -299.975,-44.506 -377.068,-43.904 -63.254,0 -92.296,67.319 -92.296,113.188 V -1.94 c 0,0.881 -0.444,1.234 -0.667,1.234 -0.891,0 -2.673,-3.352 -3.341,-5.116 -2.005,-6.704 -22.718,-70.568 -42.54,-70.568 -14.7,0 -15.814,28.58 -15.814,52.926 0,27.698 2.004,22.582 2.004,44.105 0,4.763 -0.444,8.468 -1.781,8.645 -1.114,0 -54.945,-170.407 -56.949,-173.229 -2.004,-2.823 -3.119,-5.646 -6.459,-5.646 -5.791,0 -6.905,5.116 -6.905,8.468 v 8.116 c 0,18.347 12.85,130.359 12.85,132.652 v 1.412 c 0,0.176 -0.222,0.352 -0.445,0.352 -2.004,0 -8.686,-18.877 -14.477,-18.877 -1.113,0 -3.787,1.236 -3.787,3 0,0.882 0.669,1.94 2.228,3.528 0,0 16.259,21.7 16.259,26.11 0,0 0.668,34.578 1.781,36.519"
             style="fill:#8da484;fill-opacity:1;fill-rule:nonzero;stroke:none"
             id="path216" /></g><g
           id="g218"
           transform="translate(337.0352,170.4389)"><path
             d="M 0,0 -0.001,0.002 V 0.005 Z"
             style="fill:#4f6e83;fill-opacity:1;fill-rule:nonzero;stroke:none"
             id="path220" /></g><g
           id="g222"
           transform="translate(337.0308,170.4599)"><path
             d="M 0,0 -0.001,0.007 C 0,0.001 -0.001,0.004 0,-0.003 l 0.001,-0.004 c 0,0 0,0.002 0.002,-0.007 C 0,-0.003 0.001,-0.008 0,0 Z"
             style="fill:#4f6e83;fill-opacity:1;fill-rule:nonzero;stroke:none"
             id="path224" /></g><g
           id="g226"
           transform="translate(336.9868,170.6684)"><path
             d="M 0,0 -0.001,0.006 Z"
             style="fill:#4f6e83;fill-opacity:1;fill-rule:nonzero;stroke:none"
             id="path228" /></g><g
           id="g230"
           transform="translate(336.9707,170.7446)"><path
             d="M 0,0 C 0,0 0.003,-0.014 0.005,-0.023 0.003,-0.017 0.002,-0.01 0,0"
             style="fill:#4f6e83;fill-opacity:1;fill-rule:nonzero;stroke:none"
             id="path232" /></g><g
           id="g234"
           transform="translate(336.9922,170.6415)"><path
             d="M 0,0 -0.001,0.007 C 0.001,-0.003 0.002,-0.008 0,0"
             style="fill:#4f6e83;fill-opacity:1;fill-rule:nonzero;stroke:none"
             id="path236" /></g><g
           id="g238"
           transform="translate(336.9868,170.6684)"><path
             d="M 0,0 0.003,-0.018 C 0,0 0,0 0,0"
             style="fill:#4f6e83;fill-opacity:1;fill-rule:nonzero;stroke:none"
             id="path240" /></g><g
           id="g242"
           transform="translate(337.021,170.5058)"><path
             d="M 0,0 V -0.003 Z"
             style="fill:#4f6e83;fill-opacity:1;fill-rule:nonzero;stroke:none"
             id="path244" /></g><g
           id="g246"
           transform="translate(337.0073,170.5703)"><path
             d="m 0,0 v -0.001 l 0.004,-0.02 z"
             style="fill:#4f6e83;fill-opacity:1;fill-rule:nonzero;stroke:none"
             id="path248" /></g><g
           id="g250"
           transform="translate(337.0156,170.5297)"><path
             d="M 0,0 C 0,0 -0.006,0.031 -0.009,0.045 -0.006,0.031 -0.004,0.021 -0.004,0.021 Z"
             style="fill:#4f6e83;fill-opacity:1;fill-rule:nonzero;stroke:none"
             id="path252" /></g><g
           id="g254"
           transform="translate(337.022,170.5014)"><path
             d="M 0,0 V -0.003 Z"
             style="fill:#4f6e83;fill-opacity:1;fill-rule:nonzero;stroke:none"
             id="path256" /></g><g
           id="g258"
           transform="translate(337.0044,170.5839)"><path
             d="M 0,0 0.003,-0.017 Z"
             style="fill:#4f6e83;fill-opacity:1;fill-rule:nonzero;stroke:none"
             id="path260" /></g><g
           id="g262"
           transform="translate(336.999,171.4936)"><path
             d="M 0,0 C 0,-0.015 0.001,-0.024 0.001,-0.037 0,-0.016 0,0 0,0"
             style="fill:#4f6e83;fill-opacity:1;fill-rule:nonzero;stroke:none"
             id="path264" /></g><g
           id="g266"
           transform="translate(337.0352,170.4389)"><path
             d="M 0,0 V 0.001 Z"
             style="fill:#4f6e83;fill-opacity:1;fill-rule:nonzero;stroke:none"
             id="path268" /></g><g
           id="g270"
           transform="translate(337.0156,170.5302)"><path
             d="M 0,0 V 0.002 C 0.002,-0.01 0.002,-0.008 0,0"
             style="fill:#4f6e83;fill-opacity:1;fill-rule:nonzero;stroke:none"
             id="path272" /></g><g
           id="g274"
           transform="translate(336.9805,170.7162)"><path
             d="M 0,0 C -0.03,0.153 -0.039,0.197 -0.072,0.367 -0.059,0.3 -0.02,0.1 0,0"
             style="fill:#4f6e83;fill-opacity:1;fill-rule:nonzero;stroke:none"
             id="path276" /></g><g
           id="g278"
           transform="translate(337.0205,170.5073)"><path
             d="M 0,0 V 0.003 Z"
             style="fill:#4f6e83;fill-opacity:1;fill-rule:nonzero;stroke:none"
             id="path280" /></g><g
           id="g282"
           transform="translate(336.9082,171.0834)"><path
             d="M 0,0 V 0.001 L -0.004,0.018 Z"
             style="fill:#4f6e83;fill-opacity:1;fill-rule:nonzero;stroke:none"
             id="path284" /></g><g
           id="g286"
           transform="translate(336.9951,170.6274)"><path
             d="M 0,0 C -0.004,0.022 -0.008,0.039 -0.012,0.055 -0.009,0.042 -0.005,0.027 0,0"
             style="fill:#4f6e83;fill-opacity:1;fill-rule:nonzero;stroke:none"
             id="path288" /></g><g
           id="g290"
           transform="translate(336.9678,170.7582)"><path
             d="M 0,0 0.003,-0.014 C 0.001,-0.004 0,0 0,0"
             style="fill:#4f6e83;fill-opacity:1;fill-rule:nonzero;stroke:none"
             id="path292" /></g><g
           id="g294"
           transform="translate(336.9521,170.8334)"><path
             d="M 0,0 C 0.002,-0.01 0.006,-0.029 0.002,-0.009 0,-0.002 -0.002,0.007 -0.002,0.007 0.002,-0.012 0.004,-0.021 0,0"
             style="fill:#4f6e83;fill-opacity:1;fill-rule:nonzero;stroke:none"
             id="path296" /></g><g
           id="g298"
           transform="translate(336.9463,170.8613)"><path
             d="M 0,0 -0.006,0.029 -0.004,0.02 Z"
             style="fill:#4f6e83;fill-opacity:1;fill-rule:nonzero;stroke:none"
             id="path300" /></g><g
           id="g302"
           transform="translate(336.9668,171.4277)"><path
             d="M 0,0 C 0.004,-0.05 0.008,-0.105 0.012,-0.16 0.003,-0.034 0.001,0.01 0,0"
             style="fill:#4f6e83;fill-opacity:1;fill-rule:nonzero;stroke:none"
             id="path304" /></g><g
           id="g306"
           transform="translate(337.021,170.5048)"><path
             d="M 0,0 V 0.002 Z"
             style="fill:#4f6e83;fill-opacity:1;fill-rule:nonzero;stroke:none"
             id="path308" /></g><g
           id="g310"
           transform="translate(336.8486,171.3242)"><path
             d="M 0,0 -0.001,0.007 Z"
             style="fill:#4f6e83;fill-opacity:1;fill-rule:nonzero;stroke:none"
             id="path312" /></g><g
           id="g314"
           transform="translate(336.8926,171.4995)"><path
             d="m 0,0 -0.001,0.012 c 0,0 0,0 0.001,-0.012"
             style="fill:#4f6e83;fill-opacity:1;fill-rule:nonzero;stroke:none"
             id="path316" /></g><g
           id="g318"
           transform="translate(336.8408,171.3622)"><path
             d="M 0,0 0.001,-0.009 0,-0.002 Z"
             style="fill:#4f6e83;fill-opacity:1;fill-rule:nonzero;stroke:none"
             id="path320" /></g><g
           id="g322"
           transform="translate(336.9785,171.2656)"><path
             d="M 0,0 V 0.002 Z"
             style="fill:#4f6e83;fill-opacity:1;fill-rule:nonzero;stroke:none"
             id="path324" /></g><g
           id="g326"
           transform="translate(337.0269,170.5307)"><path
             d="M 0,0 C 0,-0.008 0,0.004 -0.001,0.017 L -0.002,0.023 -0.003,0.031 C -0.002,0.019 -0.001,0.008 0,0 M -0.066,0.696 C -0.065,0.688 -0.064,0.687 -0.064,0.687 -0.06,0.635 -0.055,0.585 -0.055,0.585 -0.059,0.621 -0.062,0.651 -0.066,0.696 M -0.064,0.69 V 0.693 0.7 Z m 0,0.471 c 0.001,-0.008 0.013,-0.242 0.021,-0.383 0.002,-0.067 -0.011,0.181 -0.02,0.307 0.003,-0.064 0.014,-0.265 0.014,-0.274 -0.002,0.039 -0.003,0.053 -0.006,0.103 0.008,-0.181 0,-0.01 0.011,-0.237 l -0.004,0.058 c 0.007,-0.117 0.016,-0.236 0.022,-0.321 0,0 0.009,-0.142 -0.002,0.011 0,0 -0.004,0.055 -0.007,0.101 L -0.031,0.463 C -0.045,0.679 -0.036,0.538 -0.046,0.697 -0.042,0.628 -0.031,0.456 -0.037,0.521 -0.051,0.728 -0.041,0.59 -0.054,0.775 L -0.047,0.691 C -0.07,1.023 -0.045,0.671 -0.07,1.026 -0.077,1.088 -0.065,0.92 -0.072,0.983 -0.063,0.869 -0.06,0.814 -0.051,0.699 -0.039,0.504 -0.093,1.216 -0.074,0.948 -0.064,0.814 -0.044,0.563 -0.057,0.701 L -0.074,0.923 C -0.078,0.947 -0.049,0.605 -0.063,0.759 -0.07,0.844 -0.069,0.831 -0.071,0.856 -0.086,1.032 -0.062,0.735 -0.062,0.735 L -0.079,0.929 C -0.077,0.901 -0.07,0.774 -0.068,0.742 l -0.016,0.169 c 0.005,-0.088 -0.009,0.033 -0.022,0.136 l 0.013,-0.148 c 0,0 -0.007,0.067 -0.01,0.096 -0.006,0.057 0.01,-0.094 0.015,-0.15 -0.001,0.01 -0.009,0.084 -0.013,0.129 0.01,-0.124 0.021,-0.25 0.003,-0.097 l -0.005,0.04 C -0.11,0.975 -0.073,0.641 -0.089,0.772 L -0.091,0.795 C -0.102,0.86 -0.093,0.754 -0.119,0.948 -0.104,0.805 -0.123,0.99 -0.102,0.79 -0.12,0.911 -0.126,0.954 -0.138,1.036 -0.136,1.025 -0.121,0.895 -0.118,0.871 L -0.134,0.99 -0.119,0.869 -0.138,1.01 -0.135,0.981 c 0.001,-0.007 0.007,-0.053 0.012,-0.087 0.005,-0.049 -0.015,0.087 -0.023,0.144 l 0.009,-0.09 C -0.142,0.991 -0.144,1.006 -0.147,1.034 -0.134,0.924 -0.164,1.149 -0.151,1.048 -0.148,1.023 -0.143,0.984 -0.14,0.962 -0.15,1.028 -0.152,1.03 -0.15,1.005 L -0.16,1.076 C -0.165,1.094 -0.161,1.045 -0.164,1.049 -0.16,1.018 -0.143,0.905 -0.141,0.894 L -0.156,0.995 C -0.147,0.933 -0.151,0.957 -0.14,0.882 -0.141,0.894 -0.157,0.995 -0.162,1.028 L -0.158,0.995 C -0.163,1.024 -0.165,1.04 -0.17,1.077 -0.162,1.017 -0.187,1.174 -0.172,1.071 L -0.177,1.099 -0.179,1.066 C -0.168,0.993 -0.17,1.009 -0.162,0.95 -0.167,0.977 -0.181,1.031 -0.181,1.031 -0.175,0.998 -0.172,0.975 -0.166,0.935 -0.177,0.998 -0.175,0.992 -0.184,1.036 -0.185,1.03 -0.185,1.027 -0.182,0.987 -0.177,0.964 -0.175,0.954 -0.172,0.935 -0.171,0.927 -0.178,0.961 -0.182,0.987 L -0.183,0.992 C -0.174,0.926 -0.22,1.149 -0.205,1.05 L -0.206,1.055 -0.201,1.011 C -0.202,1.019 -0.207,1.043 -0.212,1.07 -0.203,1.005 -0.22,1.083 -0.215,1.044 -0.238,1.148 -0.224,1.046 -0.239,1.106 l 0.005,-0.02 C -0.231,1.068 -0.239,1.102 -0.239,1.102 -0.236,1.087 -0.236,1.085 -0.233,1.075 L -0.237,1.073 -0.228,1.029 c 0,0 0.006,-0.026 0.014,-0.066 l -0.007,0.033 c 0.025,-0.117 0.002,-0.008 0.023,-0.107 -0.002,0.008 -0.004,0.018 -0.004,0.018 -0.003,0.013 0.004,-0.02 0.007,-0.035 0,0 -0.002,0.012 -0.004,0.018 -0.001,0.006 0.008,-0.037 0.005,-0.022 l -0.002,0.01 c 0.003,-0.015 -0.001,0.004 0.007,-0.032 0.004,-0.02 0,0.002 0.004,-0.023 0.008,-0.035 -0.002,0.01 0.009,-0.039 -0.007,0.033 -0.002,0.009 0.002,-0.012 -0.001,0.008 -0.001,0.009 -0.004,0.02 0,0 0.002,-0.009 0.007,-0.034 -0.005,0.024 0.012,-0.055 0.004,-0.016 0.009,-0.043 0.015,-0.072 0.019,-0.091 -0.01,0.045 -0.001,0.005 -0.011,0.052 0.006,-0.029 0.012,-0.056 0.015,-0.073 0,0 -0.003,0.014 -0.004,0.02 0.011,-0.052 -0.002,0.008 0.013,-0.061 l -0.002,0.01 c 0,0 -0.002,0.006 0.003,-0.015 L -0.135,0.59 c 0.004,-0.021 0.009,-0.043 0.011,-0.054 l -0.009,0.041 0.004,-0.019 c 0,0 -0.001,0.006 -0.002,0.014 0.002,-0.011 0.006,-0.034 0.006,-0.034 -0.001,0.006 -0.001,0.009 -0.003,0.016 0.004,-0.019 0.005,-0.025 0.007,-0.033 l -0.002,0.008 c 0,0 0.007,-0.03 0.012,-0.055 -0.003,0.015 -0.001,0.005 -0.004,0.018 l 0.003,-0.013 0.001,-0.005 c 0,0 0.002,-0.011 0.006,-0.027 l -0.003,0.012 0.004,-0.016 v 0.001 c 0.002,-0.012 0.003,-0.019 0.005,-0.025 0,0 0.001,-0.007 0,-0.001 0.002,-0.01 0.002,-0.011 0.004,-0.019 C -0.096,0.404 -0.1,0.42 -0.1,0.42 -0.094,0.392 -0.098,0.413 -0.092,0.382 l -0.002,0.014 0.002,-0.014 -0.001,0.009 c 0,0 0.001,-0.009 0.004,-0.02 l -0.002,0.006 c 0.006,-0.025 0.002,-0.005 0.008,-0.035 -0.004,0.02 -0.001,0.005 -0.005,0.021 0.003,-0.011 0.01,-0.046 0.013,-0.061 v 0.002 c 0.004,-0.021 0.002,-0.01 0.004,-0.019 l -0.002,0.009 c 0.002,-0.012 0.005,-0.022 0.01,-0.045 L -0.065,0.254 C -0.061,0.237 -0.062,0.244 -0.061,0.235 -0.06,0.23 -0.06,0.23 -0.058,0.223 -0.046,0.167 -0.057,0.218 -0.047,0.172 L -0.049,0.178 -0.045,0.16 -0.044,0.158 C -0.042,0.149 -0.042,0.143 -0.042,0.143 L -0.043,0.15 -0.042,0.146 C -0.039,0.133 -0.041,0.138 -0.039,0.13 v 0.003 c 0.001,-0.006 0.003,-0.016 0.003,-0.016 -0.002,0.008 -0.001,0.004 -0.002,0.011 0,0 0.001,-0.007 0.004,-0.022 -0.001,0.006 -0.001,0.006 -0.002,0.012 10e-4,-0.007 10e-4,-0.007 10e-4,-0.007 v 0.001 l 0.002,-0.008 v 0 C -0.024,0.063 -0.032,0.097 -0.026,0.07 -0.028,0.078 -0.027,0.074 -0.028,0.08 V 0.078 C -0.024,0.062 -0.029,0.083 -0.024,0.06 l 0.001,-0.001 c 0.001,-0.008 0,-0.002 0,-0.002 0.006,-0.031 -0.001,0.002 0.008,-0.039 0.002,-0.009 0.005,-0.025 0.007,-0.033 l -0.002,0.007 c 0.003,-0.012 0.002,-0.007 0.004,-0.016 v 0 l 0.002,-0.011 -0.001,0.007 0.004,-0.019 -0.002,0.007 c 0,0 0.002,-0.007 0.004,-0.02 L 0,-0.056 v 0.001 L -0.001,-0.047 0,-0.052 c -0.006,0.028 -0.005,0.025 -0.005,0.025 l 0.001,-0.008 -0.002,0.013 c 0,0 0,0 0.001,-0.009 0,0 -0.002,0.011 -0.001,0.006 l 0.001,-0.004 -0.002,0.011 0.003,-0.014 c 0.001,-0.006 -0.007,0.03 -0.003,0.015 V -0.02 c -0.002,0.009 -0.004,0.019 -0.009,0.041 l 0.007,-0.033 -0.005,0.023 c 0,0 0,0.001 0.002,-0.009 -0.003,0.018 -0.002,0.011 -0.006,0.027 0.004,-0.016 -0.005,0.03 0.003,-0.011 -0.005,0.021 -0.004,0.016 -0.006,0.031 0.009,-0.046 -0.004,0.016 0,-0.001 0.005,-0.027 0.002,-0.013 0.008,-0.037 -0.01,0.048 0,-0.002 -0.003,0.01 -0.012,0.06 -0.005,0.025 -0.009,0.045 L -0.02,0.042 -0.018,0.033 c -0.013,0.063 -0.011,0.051 -0.014,0.064 0.008,-0.034 0.01,-0.047 0.013,-0.062 v 0.004 c -0.004,0.019 -0.007,0.03 -0.008,0.037 L -0.018,0.034 C -0.02,0.039 -0.031,0.093 -0.026,0.07 -0.033,0.104 -0.045,0.163 -0.05,0.186 c 0.003,-0.013 0.007,-0.035 0.008,-0.04 0,0 -0.004,0.022 -0.003,0.014 l 0.009,-0.043 -0.007,0.034 c 0.007,-0.033 0.005,-0.024 0.01,-0.049 0,0 -0.002,0.011 0.001,-0.003 0.001,-0.005 0.005,-0.023 0.01,-0.046 -0.005,0.021 -0.012,0.054 -0.012,0.054 0,0 0.009,-0.04 0.013,-0.057 -0.006,0.027 0,-0.001 -0.013,0.057 0,0 0.005,-0.024 0.009,-0.039 -0.007,0.029 -0.002,0.009 -0.017,0.077 V 0.148 L -0.043,0.151 C -0.058,0.222 -0.04,0.138 -0.047,0.173 l 0.004,-0.022 c -0.007,0.033 -0.004,0.02 -0.017,0.081 0,0 0.009,-0.041 0.014,-0.067 C -0.05,0.187 -0.057,0.215 -0.049,0.181 -0.04,0.134 -0.042,0.146 -0.042,0.146 -0.039,0.13 -0.03,0.089 -0.045,0.163 -0.032,0.097 -0.029,0.084 -0.033,0.105 l -0.009,0.044 c -0.003,0.013 -10e-4,0.005 -10e-4,0.005 l 0.018,-0.089 c 0.023,-0.107 -0.043,0.204 -0.004,0.018 -0.013,0.066 -0.01,0.046 -0.026,0.123 0.003,-0.012 0.031,-0.144 0.031,-0.144 -0.01,0.048 -0.018,0.084 -0.025,0.118 -0.008,0.037 -0.029,0.137 -0.036,0.173 0.002,-0.014 0.032,-0.153 0.038,-0.183 0,0 -0.001,0.008 -0.004,0.02 0.003,-0.013 0.006,-0.029 0.014,-0.07 l -0.007,0.037 c 0.007,-0.036 0.006,-0.032 0.019,-0.091 -0.008,0.036 -0.013,0.061 -0.017,0.081 0.008,-0.037 0,-0.004 0.006,-0.029 -0.005,0.021 -0.014,0.067 -0.014,0.067 0.008,-0.042 -0.017,0.078 -0.022,0.103 0.012,-0.059 0.031,-0.149 0.02,-0.092 0.009,-0.043 0.023,-0.11 0.03,-0.143 -0.018,0.082 0.01,-0.048 0.013,-0.064 l 0.008,-0.034 c -0.005,0.021 -0.005,0.02 -0.005,0.02 L -0.024,0.06 c 0.003,-0.015 0.003,-0.015 0.011,-0.05 -0.012,0.057 -0.03,0.144 -0.047,0.222 0.007,-0.034 -0.006,0.027 0.013,-0.063 0.008,-0.036 0.026,-0.12 0.029,-0.138 -0.003,0.014 -0.003,0.014 0,0 C -0.015,0.018 -0.013,0.006 -0.011,0 0.011,-0.104 -0.04,0.135 -0.04,0.135 c 0.015,-0.067 0.021,-0.099 0.024,-0.113 0,0 -0.024,0.114 -0.035,0.166 0.01,-0.05 -0.008,0.04 -0.008,0.04 L -0.064,0.25 C -0.08,0.325 -0.078,0.315 -0.083,0.339 -0.071,0.283 -0.074,0.3 -0.069,0.276 c -0.027,0.127 0.026,-0.122 0.007,-0.034 0.01,-0.049 0.028,-0.135 0.035,-0.168 -0.02,0.097 0.021,-0.098 0.004,-0.017 -0.021,0.101 -0.016,0.076 -0.037,0.174 l 0.016,-0.076 -0.031,0.149 c 0,0 0.007,-0.033 0.011,-0.053 -0.017,0.082 -0.012,0.057 -0.029,0.139 0.03,-0.144 -0.02,0.096 0,0 L -0.041,0.14 C -0.018,0.03 -0.069,0.277 -0.057,0.219 L -0.066,0.263 C -0.085,0.354 -0.072,0.29 -0.08,0.327 -0.062,0.239 -0.055,0.207 -0.043,0.152 -0.058,0.221 -0.042,0.146 -0.081,0.331 l 0.025,-0.117 c -0.011,0.052 -0.045,0.213 -0.052,0.246 0.022,-0.103 0.036,-0.17 0.051,-0.245 0,0 0.004,-0.015 -0.01,0.05 0.012,-0.058 -0.028,0.134 -0.01,0.045 -0.008,0.044 -0.027,0.13 -0.029,0.139 0.004,-0.02 0.01,-0.048 0.01,-0.048 -0.01,0.049 -0.013,0.066 -0.036,0.175 0.052,-0.249 0,-0.003 0.045,-0.217 -0.009,0.041 -0.017,0.08 -0.019,0.091 0.007,-0.032 0.011,-0.053 0.009,-0.043 -0.016,0.077 -0.025,0.12 -0.043,0.207 0.036,-0.175 0.019,-0.095 0.034,-0.161 0.041,-0.195 0.007,-0.034 0.031,-0.148 l 0.004,-0.022 c 0.026,-0.121 -0.03,0.143 -0.026,0.123 0,0 0.007,-0.032 0.012,-0.055 -0.042,0.202 -0.057,0.269 -0.068,0.325 0.031,-0.15 0.016,-0.079 0.048,-0.231 -0.004,0.022 -0.052,0.247 -0.061,0.29 0.017,-0.08 0.032,-0.151 0.065,-0.31 L -0.098,0.412 C -0.054,0.203 -0.101,0.424 -0.093,0.39 l 0.019,-0.094 c -0.007,0.033 -0.051,0.245 -0.055,0.265 l -0.015,0.071 c -0.052,0.244 0.027,-0.131 -0.011,0.053 l 0.051,-0.244 c -0.013,0.063 -0.053,0.253 -0.064,0.303 0.04,-0.19 0.061,-0.287 0.085,-0.401 0,0 -0.005,0.021 -0.032,0.15 0.005,-0.025 0.018,-0.087 0.011,-0.05 -0.044,0.207 -0.063,0.298 -0.065,0.306 0.065,-0.307 0.058,-0.272 0.065,-0.304 0.003,-0.019 0.012,-0.06 0.043,-0.203 -0.035,0.175 0.019,-0.088 0.015,-0.062 -0.072,0.364 -0.002,0.01 -0.076,0.384 -0.003,0.021 -0.002,0.015 0.003,-0.01 l 0.046,-0.228 c 0.021,-0.107 0.015,-0.081 0.031,-0.163 0.006,-0.029 0.031,-0.157 0.05,-0.255 -0.025,0.132 -0.036,0.187 -0.026,0.136 l -0.033,0.17 c -0.035,0.188 0.059,-0.306 0.024,-0.119 l 0.021,-0.112 c -0.012,0.064 0,-10e-4 -0.05,0.274 0.007,-0.04 0.025,-0.135 0.029,-0.16 0.008,-0.041 -0.048,0.278 -0.017,0.109 L -0.03,0.125 C -0.034,0.148 -0.056,0.274 -0.041,0.193 -0.036,0.16 -0.027,0.109 -0.027,0.109 -0.031,0.136 -0.05,0.245 -0.042,0.198 L -0.027,0.11 c 0.019,-0.105 -0.034,0.207 -0.04,0.249 0.038,-0.223 0.05,-0.296 0.056,-0.332 l 0.005,-0.031 C -0.01,0.022 -0.031,0.162 -0.043,0.24 -0.007,0.013 -0.027,0.143 -0.007,0.015 -0.012,0.049 -0.028,0.162 -0.031,0.18 -0.025,0.141 -0.048,0.305 -0.024,0.135 L -0.025,0.139 C 0,-0.03 -0.007,0.014 -0.006,0.008 l -0.03,0.217 c 0.029,-0.201 0,0.002 0.026,-0.179 -0.006,0.048 -0.006,0.047 -0.012,0.095 l 0.014,-0.105 c 0.004,-0.029 0.006,-0.042 0.003,-0.021 l 0.008,-0.071 c 0,0.007 -0.033,0.278 -0.034,0.284 l 0.018,-0.145 c 0,0 0.015,-0.125 0.002,-0.007 0.002,-0.02 0.007,-0.058 0.007,-0.063 C -0.003,0.007 0.007,-0.079 -0.013,0.097 0,-0.017 -0.011,0.083 -0.015,0.126 l 0.008,-0.08 C -0.017,0.143 -0.02,0.169 -0.022,0.196 -0.021,0.185 -0.016,0.133 -0.018,0.154 -0.013,0.11 -0.025,0.224 -0.02,0.178 L -0.015,0.131 C -0.014,0.122 -0.017,0.148 -0.021,0.201 -0.024,0.228 -0.018,0.173 -0.012,0.108 -0.016,0.147 -0.02,0.197 -0.018,0.176 -0.016,0.152 -0.014,0.138 -0.014,0.13 -0.008,0.078 -0.02,0.2 -0.013,0.128 c 0.003,-0.022 0.004,-0.033 0.004,-0.04 0,0 -0.001,0.01 -0.002,0.018 0.006,-0.063 0.007,-0.074 0.016,-0.162 -0.005,0.048 -0.014,0.143 -0.01,0.112 0,-0.006 0.001,-0.012 0.002,-0.021 V 0.028 c 0.001,-0.006 0,-0.001 0,0.009 0.001,-0.011 0.002,-0.02 0.002,-0.02 0.003,-0.048 0.002,-0.031 0.002,-0.031 -0.005,0.061 -0.004,0.051 -0.009,0.101 l 0.001,-0.008 0.001,-0.005 -0.001,0.005 v 0 C -0.01,0.11 -0.012,0.134 -0.009,0.098 -0.012,0.135 -0.015,0.174 -0.017,0.192 -0.009,0.105 -0.005,0.059 0,0.005 -0.002,0.032 -0.001,0.023 -0.008,0.111 -0.007,0.099 -0.005,0.08 -0.004,0.065 c 0.001,-0.008 0.001,-0.007 0.001,-0.019 -0.001,0.019 0,0.008 -0.004,0.061 0.003,-0.028 0.004,-0.041 0.004,-0.051 L -0.001,0.038 C 0.006,-0.059 -0.009,0.156 0,0.031 c 0,0.007 0,0.01 -0.001,0.019 0.005,-0.059 -0.001,0.018 0.006,-0.076 0.001,-0.012 0,0.005 0,0.012 l 0.001,-0.02 -0.001,0.016 c 0.001,-0.016 0,-0.007 0.002,-0.038 v 0.01 c 0,0 -0.001,0.006 0,-0.016 v 0 -0.004 L 0.008,-0.07 v -0.016 -0.006 0.006 -0.005 -0.001 C 0.007,-0.034 0.006,0.019 0.005,0.062 L 0,0.386 -0.005,0.646 0.001,0.274 c -0.005,0.31 -0.004,0.241 -0.007,0.429 -0.003,0.109 -0.005,0.184 -0.006,0.225 L -0.007,0.586 C -0.01,0.727 -0.014,0.864 -0.016,0.942 -0.012,0.784 -0.009,0.629 -0.007,0.525 -0.012,0.689 -0.015,0.82 -0.013,0.684 -0.015,0.775 -0.016,0.833 -0.017,0.873 -0.016,0.766 -0.016,0.827 -0.014,0.643 -0.023,0.84 -0.012,0.593 -0.026,0.926 -0.024,0.849 -0.02,0.673 -0.02,0.66 c -0.018,0.387 -0.001,0.023 -0.02,0.438 0.008,-0.334 0.004,-0.15 0.008,-0.335 -0.001,0.027 -0.004,0.08 -0.003,0.063 -10e-4,0.028 -0.007,0.129 -0.011,0.193 0.012,-0.27 0.015,-0.332 0.023,-0.498 -0.014,0.26 -0.017,0.317 -0.029,0.568 0.01,-0.218 0.01,-0.217 0.019,-0.399 -0.009,0.161 -0.005,0.078 -0.018,0.302 0.016,-0.324 0.003,-0.06 0.013,-0.259 -0.011,0.165 -0.018,0.309 -0.014,0.211 -0.006,0.1 -0.012,0.217 -0.012,0.217"
             style="fill:#4f6e83;fill-opacity:1;fill-rule:nonzero;stroke:none"
             id="path328" /></g><g
           id="g330"
           transform="translate(337.02,170.6098)"><path
             d="M 0,0 V 0.004 C -0.001,0.01 -0.002,0.019 -0.002,0.019 Z"
             style="fill:#4f6e83;fill-opacity:1;fill-rule:nonzero;stroke:none"
             id="path332" /></g><g
           id="g334"
           transform="translate(336.9854,170.6757)"><path
             d="M 0,0 V -0.001 L -0.001,0.006 Z"
             style="fill:#4f6e83;fill-opacity:1;fill-rule:nonzero;stroke:none"
             id="path336" /></g><g
           id="g338"
           transform="translate(336.8896,171.5483)"><path
             d="M 0,0 0.003,-0.027 0,-0.003 Z"
             style="fill:#4f6e83;fill-opacity:1;fill-rule:nonzero;stroke:none"
             id="path340" /></g><g
           id="g342"
           transform="translate(336.9839,170.6811)"><path
             d="M 0,0 Z"
             style="fill:#4f6e83;fill-opacity:1;fill-rule:nonzero;stroke:none"
             id="path344" /></g><g
           id="g346"
           transform="translate(336.9922,170.642)"><path
             d="M 0,0 0.001,-0.004 Z"
             style="fill:#4f6e83;fill-opacity:1;fill-rule:nonzero;stroke:none"
             id="path348" /></g><g
           id="g350"
           transform="translate(336.998,170.6132)"><path
             d="M 0,0 0.001,-0.002 Z"
             style="fill:#4f6e83;fill-opacity:1;fill-rule:nonzero;stroke:none"
             id="path352" /></g><g
           id="g354"
           transform="translate(336.8896,171.1298)"><path
             d="M 0,0 V 0.002 Z"
             style="fill:#4f6e83;fill-opacity:1;fill-rule:nonzero;stroke:none"
             id="path356" /></g><g
           id="g358"
           transform="translate(336.9277,170.9487)"><path
             d="m 0,0 -0.002,0.011 c 0,0 0,0 0.002,-0.011"
             style="fill:#4f6e83;fill-opacity:1;fill-rule:nonzero;stroke:none"
             id="path360" /></g><g
           id="g362"
           transform="translate(336.8486,171.3232)"><path
             d="M 0,0 V 0 0.001 Z"
             style="fill:#4f6e83;fill-opacity:1;fill-rule:nonzero;stroke:none"
             id="path364" /></g><g
           id="g366"
           transform="translate(336.9238,170.9658)"><path
             d="m 0,0 c 0.001,-0.005 0.001,-0.006 0.001,-0.006 0,0 0,0 -0.001,0.006"
             style="fill:#4f6e83;fill-opacity:1;fill-rule:nonzero;stroke:none"
             id="path368" /></g><g
           id="g370"
           transform="translate(337.0269,170.4775)"><path
             d="M 0,0 V -0.001 Z"
             style="fill:#4f6e83;fill-opacity:1;fill-rule:nonzero;stroke:none"
             id="path372" /></g><g
           id="g374"
           transform="translate(337.0273,170.476)"><path
             d="M 0,0 V -0.002 Z"
             style="fill:#4f6e83;fill-opacity:1;fill-rule:nonzero;stroke:none"
             id="path376" /></g><g
           id="g378"
           transform="translate(337.0283,170.4702)"><path
             d="M 0,0 -0.001,0.004 Z"
             style="fill:#4f6e83;fill-opacity:1;fill-rule:nonzero;stroke:none"
             id="path380" /></g><g
           id="g382"
           transform="translate(337.0181,170.5185)"><path
             d="M 0,0 V 0.001 Z"
             style="fill:#4f6e83;fill-opacity:1;fill-rule:nonzero;stroke:none"
             id="path384" /></g><g
           id="g386"
           transform="translate(337.0156,170.5317)"><path
             d="M 0,0 0.002,-0.011 V -0.012 C 0,-0.004 0.002,-0.009 0,0"
             style="fill:#4f6e83;fill-opacity:1;fill-rule:nonzero;stroke:none"
             id="path388" /></g><g
           id="g390"
           transform="translate(337.0146,170.5341)"><path
             d="M 0,0 V 0 C 0.002,-0.009 0.005,-0.022 0.005,-0.022 0.009,-0.042 0.001,-0.005 0,0"
             style="fill:#4f6e83;fill-opacity:1;fill-rule:nonzero;stroke:none"
             id="path392" /></g><g
           id="g394"
           transform="translate(337.0137,170.5395)"><path
             d="M 0,0 C 0.001,-0.005 0.003,-0.016 0.005,-0.022 0.003,-0.012 0.002,-0.01 0,0"
             style="fill:#4f6e83;fill-opacity:1;fill-rule:nonzero;stroke:none"
             id="path396" /></g><g
           id="g398"
           transform="translate(336.9858,170.6733)"><path
             d="M 0,0 0.013,-0.062 C 0.011,-0.053 0.008,-0.038 0,0"
             style="fill:#4f6e83;fill-opacity:1;fill-rule:nonzero;stroke:none"
             id="path400" /></g><g
           id="g402"
           transform="translate(336.939,170.8959)"><path
             d="M 0,0 V 0.002 L 0.001,-0.009 Z"
             style="fill:#4f6e83;fill-opacity:1;fill-rule:nonzero;stroke:none"
             id="path404" /></g><g
           id="g406"
           transform="translate(337.0068,170.5732)"><path
             d="M 0,0 0.002,-0.011 -0.004,0.017 Z"
             style="fill:#4f6e83;fill-opacity:1;fill-rule:nonzero;stroke:none"
             id="path408" /></g><g
           id="g410"
           transform="translate(336.9736,170.7289)"><path
             d="M 0,0 -0.034,0.161 C -0.027,0.13 0.011,-0.05 0,0"
             style="fill:#4f6e83;fill-opacity:1;fill-rule:nonzero;stroke:none"
             id="path412" /></g><g
           id="g414"
           transform="translate(336.9209,170.9819)"><path
             d="M 0,0 C 0.02,-0.095 0.033,-0.156 0.012,-0.059 0.01,-0.047 -0.006,0.026 0,0"
             style="fill:#4f6e83;fill-opacity:1;fill-rule:nonzero;stroke:none"
             id="path416" /></g><g
           id="g418"
           transform="translate(337.0142,170.5908)"><path
             d="M 0,0 0.005,-0.042 0.001,-0.008 Z"
             style="fill:#4f6e83;fill-opacity:1;fill-rule:nonzero;stroke:none"
             id="path420" /></g><g
           id="g422"
           transform="translate(338.3716,222.1298)"><path
             d="m 0,0 c 0.435,0.756 0.529,0.921 0.215,0.375 -0.449,-0.502 -0.57,-1.996 -0.785,-4.38 l -0.231,-3.412 c 0.071,1.244 0.155,2.487 0.258,3.729 0.051,0.621 0.109,1.241 0.183,1.86 C -0.28,-1.213 -0.222,-0.583 0,0"
             style="fill:#4f6e83;fill-opacity:1;fill-rule:nonzero;stroke:none"
             id="path424" /></g><g
           id="g426"
           transform="translate(336.6821,189.8012)"><path
             d="m 0,0 c -0.032,-1.415 -0.066,-2.885 -0.096,-4.236 -0.034,-0.68 -0.278,-1.292 -0.49,-1.844 -0.218,-0.554 -0.454,-1.044 -0.659,-1.468 -0.853,-1.678 -1.216,-2.296 -0.342,-0.682 0.64,1.245 1.119,2.285 1.373,3.264 0.148,0.487 0.121,0.97 0.136,1.427 0.01,0.46 0.019,0.905 0.029,1.354 0.044,1.794 0.089,3.641 0.162,6.662 0.143,4.803 0.201,6.777 0.226,7.596 0.052,1.704 0.265,7.483 0.402,10.072 C 0.434,15.882 0.187,7.94 -0.008,-0.354 -0.049,-2.134 -0.01,-0.408 0,0"
             style="fill:#4f6e83;fill-opacity:1;fill-rule:nonzero;stroke:none"
             id="path428" /></g><g
           id="g430"
           transform="translate(393.9619,145.6323)"><path
             d="M 0,0 0.015,3.034 C 0.01,2.207 0.005,1.167 0,0"
             style="fill:#4f6e83;fill-opacity:1;fill-rule:nonzero;stroke:none"
             id="path432" /></g><g
           id="g434"
           transform="translate(507.2222,44.3813)"><path
             d="M 0,0 C -1.872,1.211 -2.661,1.707 -2.763,1.756 -1.021,0.636 0.41,-0.282 0,0"
             style="fill:#4f6e83;fill-opacity:1;fill-rule:nonzero;stroke:none"
             id="path436" /></g><g
           id="g438"
           transform="translate(555.1152,32.894)"><path
             d="M 0,0 C -1.071,-0.021 -1.972,-0.039 -2.941,-0.058 -1.82,-0.047 -0.691,-0.029 0,0"
             style="fill:#4f6e83;fill-opacity:1;fill-rule:nonzero;stroke:none"
             id="path440" /></g><g
           id="g442"
           transform="translate(393.9619,145.6323)"><path
             d="M 0,0 C -0.002,-2.599 0.008,-5.197 0.048,-7.796 0.079,-8.341 -0.01,-3.8 0,0"
             style="fill:#4f6e83;fill-opacity:1;fill-rule:nonzero;stroke:none"
             id="path444" /></g><g
           id="g446"
           transform="translate(333.9453,168.684)"><path
             d="m 0,0 c -0.775,-1.437 -1.42,-2.631 -2.011,-3.725 0.636,1.18 1.251,2.321 1.887,3.5 C -0.089,-0.161 -0.059,-0.106 0,0"
             style="fill:#4f6e83;fill-opacity:1;fill-rule:nonzero;stroke:none"
             id="path448" /></g><g
           id="g450"
           transform="translate(371.1685,129.5141)"><path
             d="m 0,0 -0.729,-2.255 c -0.208,-0.664 -0.405,-1.287 -0.59,-1.877 z"
             style="fill:#4f6e83;fill-opacity:1;fill-rule:nonzero;stroke:none"
             id="path452" /></g><g
           id="g454"
           transform="translate(340.6543,35.6435)"><path
             d="M 0,0 C 0.69,2.106 0.937,2.856 1.204,3.672 0.805,2.472 0.285,0.909 -0.333,-0.947 -0.341,-0.982 -0.244,-0.707 0,0"
             style="fill:#4f6e83;fill-opacity:1;fill-rule:nonzero;stroke:none"
             id="path456" /></g><g
           id="g458"
           transform="translate(335.1445,154.1435)"><path
             d="M 0,0 0.299,2.761 C 0.221,2.043 0.09,0.833 0,0"
             style="fill:#4f6e83;fill-opacity:1;fill-rule:nonzero;stroke:none"
             id="path460" /></g><g
           id="g462"
           transform="translate(393.186,196.6401)"><path
             d="M 0,0 C 0.06,0.159 0.185,0.487 0.318,0.84 0.318,0.84 0.187,0.512 0,0"
             style="fill:#4f6e83;fill-opacity:1;fill-rule:nonzero;stroke:none"
             id="path464" /></g><g
           id="g466"
           transform="translate(339.1074,125.3281)"><path
             d="M 0,0 C -0.007,-0.079 0.003,0.032 0.001,0.007 0.055,0.579 0.071,0.755 0,0"
             style="fill:#4f6e83;fill-opacity:1;fill-rule:nonzero;stroke:none"
             id="path468" /></g><g
           id="g470"
           transform="translate(338.3716,222.1298)"><path
             d="M 0,0 C 0.172,0.499 0.373,0.992 0.646,1.444 0.731,1.592 0.835,1.731 0.835,1.731 0.455,1.209 0.215,0.604 0,0"
             style="fill:#4f6e83;fill-opacity:1;fill-rule:nonzero;stroke:none"
             id="path472" /></g><g
           id="g474"
           transform="translate(645.7549,42.7919)"><path
             d="M 0,0 C -0.175,-0.026 -0.236,-0.036 -0.4,-0.061 -2.766,-0.457 -1.425,-0.24 0,0"
             style="fill:#4f6e83;fill-opacity:1;fill-rule:nonzero;stroke:none"
             id="path476" /></g><g
           id="g478"
           transform="translate(1254.0029,67.3261)"><path
             d="M 0,0 C 9.395,-1.304 -15.374,1.404 -1.218,-0.462 -2.524,-0.184 11.722,-1.537 0,0"
             style="fill:#4f6e83;fill-opacity:1;fill-rule:nonzero;stroke:none"
             id="path480" /></g><g
           id="g482"
           transform="translate(335.2773,170.8661)"><path
             d="M 0,0 C 0.189,0.274 0.402,0.535 0.646,0.767 0.778,0.873 0.919,0.969 1.094,0.991 1.264,0.987 1.435,0.895 1.515,0.741 1.569,0.405 1.53,0.065 1.542,-0.273 1.552,-0.612 1.537,-0.951 1.498,-1.289 c 0.055,0.458 0.044,0.882 0.044,1.272 V 0.545 C 1.576,0.735 1.428,0.894 1.276,0.952 0.94,1.07 0.664,0.796 0.487,0.607 0.294,0.403 0.136,0.198 0,0"
             style="fill:#4f6e83;fill-opacity:1;fill-rule:nonzero;stroke:none"
             id="path484" /></g><g
           id="g486"
           transform="translate(1252.7852,66.8637)"><path
             d="m 0,0 v -0.002 l 1.462,-0.19 C 0.856,-0.113 0.516,-0.068 0,0"
             style="fill:#4f6e83;fill-opacity:1;fill-rule:nonzero;stroke:none"
             id="path488" /></g><g
           id="g490"
           transform="translate(853.5869,72.4267)"><path
             d="M 0,0 C -0.432,0.003 -1.269,-0.036 -2.142,-0.081 -2.067,-0.097 -1.583,-0.085 0,0"
             style="fill:#4f6e83;fill-opacity:1;fill-rule:nonzero;stroke:none"
             id="path492" /></g><g
           id="g494"
           transform="translate(698.5771,51.7421)"><path
             d="M 0,0 3.824,0.603 C 2.308,0.364 1.077,0.169 0,0"
             style="fill:#4f6e83;fill-opacity:1;fill-rule:nonzero;stroke:none"
             id="path496" /></g><g
           id="g498"
           transform="translate(934.6387,76.5346)"><path
             d="M 0,0 C 2.104,-0.006 2.82,-0.042 5.694,0 5.427,0.009 5.163,0.017 4.82,0.027 3.78,-0.01 2.397,-0.025 0,0"
             style="fill:#4f6e83;fill-opacity:1;fill-rule:nonzero;stroke:none"
             id="path500" /></g><g
           id="g502"
           transform="translate(1019.1748,75.5239)"><path
             d="M 0,0 C -0.447,0.027 -1.039,0.062 -1.558,0.094 -2.396,0.111 -3.374,0.132 -4.236,0.15 Z"
             style="fill:#4f6e83;fill-opacity:1;fill-rule:nonzero;stroke:none"
             id="path504" /></g><g
           id="g506"
           transform="translate(387.7812,202.6943)"><path
             d="M 0,0 C -0.702,-1.712 -1.139,-2.778 -1.481,-3.612 -0.974,-2.411 -5.588,-13.945 0,0"
             style="fill:#4f6e83;fill-opacity:1;fill-rule:nonzero;stroke:none"
             id="path508" /></g><g
           id="g510"
           transform="translate(333.9678,168.7211)"><path
             d="M 0,0 C 0.25,0.426 0.573,1.077 1.31,2.145 0.751,1.349 0.297,0.533 -0.146,-0.262 -0.266,-0.477 -0.292,-0.524 0,0"
             style="fill:#4f6e83;fill-opacity:1;fill-rule:nonzero;stroke:none"
             id="path512" /></g><g
           id="g514"
           transform="translate(938.0693,78.4492)"><path
             d="M 0,0 13.441,-0.01 C 9.684,0.014 4.798,0.025 0,0"
             style="fill:#4f6e83;fill-opacity:1;fill-rule:nonzero;stroke:none"
             id="path516" /></g><g
           id="g518"
           transform="translate(686.1069,68.7704)"><path
             d="M 0,0 -3.057,-0.406 C -1.877,-0.262 -0.792,-0.121 0,0"
             style="fill:#4f6e83;fill-opacity:1;fill-rule:nonzero;stroke:none"
             id="path520" /></g><g
           id="g522"
           transform="translate(991.4014,78.1249)"><path
             d="m 0,0 c 2.397,-0.126 4.94,-0.225 7.565,-0.308 0.557,0.009 1.194,0.013 1.563,0.035 z"
             style="fill:#4f6e83;fill-opacity:1;fill-rule:nonzero;stroke:none"
             id="path524" /></g><g
           id="g526"
           transform="translate(386.2891,199.0556)"><path
             d="M 0,0 0.011,0.026 Z"
             style="fill:#4f6e83;fill-opacity:1;fill-rule:nonzero;stroke:none"
             id="path528" /></g><g
           id="g530"
           transform="translate(442.1211,157.2485)"><path
             d="M 0,0 C 1.279,3.763 1.707,5.021 1.883,5.541 1.285,3.761 0.585,1.681 -0.333,-1.05 -0.369,-1.16 -0.442,-1.386 -0.478,-1.497 -0.362,-1.133 -0.23,-0.72 0,0 m 15.526,50.819 c -0.734,-2.972 -1.694,-6.661 -2.752,-10.551 -0.257,-0.844 -0.028,0.082 0.627,2.524 -0.337,-1.331 1.211,4.389 2.125,8.027 M 8.908,26.568 H 8.91 C 8.176,24.099 7.551,21.993 7.151,20.649 c 0.367,1.233 0.873,2.941 1.757,5.919 m -93.847,-68.274 c 3.542,12.303 1.647,5.784 2.386,8.397 4.336,14.652 2.036,6.772 3.549,11.747 2.777,9.128 5.194,16.035 7.603,22.729 0.185,0.498 0.659,1.797 0.112,0.271 3.361,9.511 10.53,28.029 14.878,38.947 0.329,0.809 0.495,1.217 0.579,1.422 -0.724,-1.76 -0.851,-2.025 -0.719,-1.657 1.066,2.663 2.055,5.136 2.878,7.192 0.427,1.021 0.765,1.964 1.145,2.722 0.396,0.753 0.845,1.311 1.195,1.717 -1.141,-1.342 -1.439,-2.273 -1.709,-2.932 -0.267,-0.667 -0.446,-1.119 -0.752,-1.883 l 1.135,2.782 c 0.427,0.896 1.015,1.717 1.699,2.442 0.954,0.952 1.117,1.014 0.725,0.683 -0.384,-0.336 -1.244,-1.176 -1.967,-2.324 -0.374,-0.565 -0.624,-1.241 -0.89,-1.894 -0.263,-0.652 -0.519,-1.283 -0.743,-1.836 -0.445,-1.106 -0.754,-1.9 -0.754,-1.9 0.549,1.359 1.11,2.746 1.677,4.149 0.509,1.421 1.459,2.655 2.572,3.691 1.114,1.033 2.445,1.872 3.91,2.272 0.729,0.194 1.49,0.307 2.238,0.204 0.376,-0.023 0.751,-0.047 1.107,-0.166 l 0.541,-0.139 c 0.173,-0.064 0.336,-0.156 0.503,-0.232 1.354,-0.629 2.272,-1.906 2.737,-3.254 0.492,-1.35 0.685,-2.758 0.794,-4.111 0.108,-1.357 0.107,-2.673 0.171,-3.932 0.064,-1.255 0.124,-2.449 0.182,-3.57 0.007,-0.47 -0.038,0.607 -0.132,2.298 -0.149,1.688 -0.103,4.013 -0.321,5.985 -0.184,1.985 -0.754,3.571 -0.981,3.93 -0.259,0.364 0.418,-0.266 0.873,-3.223 -0.161,1.138 -0.432,2.268 -0.923,3.3 -0.484,1.027 -1.244,1.937 -2.249,2.468 -0.26,0.11 -0.499,0.275 -0.777,0.341 l -0.825,0.215 c -0.567,0.04 -1.139,0.144 -1.707,0.081 -1.141,-0.072 -2.236,-0.501 -3.232,-1.059 1.15,0.645 1.994,0.841 2.485,0.945 0.5,0.078 0.66,0.093 0.592,0.083 -0.134,-0.021 -1.204,-0.142 -2.2,-0.616 -1.009,-0.435 -1.907,-1.129 -2.096,-1.283 -0.091,-0.084 -0.025,-0.011 0.327,0.233 0.344,0.249 0.973,0.695 2.082,1.152 1.045,0.402 2.109,0.59 3.106,0.463 1.007,-0.038 1.917,-0.383 2.655,-0.869 1.492,-1.03 2.108,-2.671 2.453,-4.114 0.666,-2.96 0.435,-5.557 0.663,-8.103 0.269,-5.1 0.374,-10.204 0.524,-19.327 0.098,-4.109 0.015,1.358 0.114,-2.751 0.254,-12.97 0.438,-18.073 0.587,-22.319 0.08,-2.122 0.159,-4.03 0.309,-6.598 0.157,-2.566 0.361,-5.794 0.862,-10.542 0.279,-2.455 0.506,-4.156 0.928,-6.92 0.221,-1.381 0.488,-3.029 0.92,-5.155 0.449,-2.12 0.999,-4.745 2.181,-7.948 -0.573,1.442 -1.047,2.92 -1.455,4.415 1.12,-4.302 2.337,-6.955 3.542,-8.679 1.208,-1.718 2.363,-2.551 3.658,-2.974 0.658,-0.169 1.346,-0.317 2.156,-0.149 0.794,0.174 1.607,0.618 2.466,1.307 1.718,1.39 3.651,3.766 6.05,7.747 -0.827,-1.427 -2.679,-4.409 -4.583,-6.423 -1.853,-2.093 -3.94,-2.762 -2.651,-2.179 1.358,0.762 2.242,1.714 2.977,2.503 0.729,0.803 1.265,1.515 1.717,2.123 0.891,1.225 1.406,2.06 1.875,2.818 0.909,1.535 1.671,2.756 3.77,6.879 l 0.912,1.687 c 4.101,8.514 7.642,17.794 11.003,27.387 3.347,9.601 6.492,19.539 9.423,29.567 -0.296,-1.118 -1.29,-4.558 0.12,0.123 1.519,5.202 3.028,10.563 4.484,16.025 0.724,2.732 1.449,5.486 2.132,8.263 0.349,1.387 0.678,2.783 1.002,4.183 0.152,0.703 0.324,1.399 0.461,2.108 0.155,0.725 0.276,1.37 0.395,2.198 -0.245,1.076 -0.28,2.004 -0.149,2.997 0.123,0.966 0.534,1.87 1.245,2.493 0.694,0.645 1.651,0.974 2.609,1.17 0.482,0.103 0.98,0.143 1.476,0.186 0.489,-0.007 1.047,0.086 1.397,-0.04 0.768,-0.233 0.973,-1.327 0.98,-2.269 -0.005,-0.996 -0.066,-2.004 -0.177,-3 -0.232,-1.995 -0.65,-3.973 -1.031,-5.949 -1.617,-7.903 -2.468,-15.784 -2.822,-23.266 -0.065,-1.62 -0.122,-3.24 -0.139,-4.861 -0.03,-1.62 -0.063,-3.241 -0.05,-4.861 -0.022,-2.259 -0.085,-4.194 -0.082,-1.745 0.023,-9.927 0.044,-0.513 0.141,-5.283 0.012,-1.413 0.053,-2.584 0.107,-3.491 0.035,-0.907 0.061,-1.55 0.075,-1.907 0.017,-0.712 -0.031,-0.272 -0.138,1.516 0.415,-8.749 1.963,-21.185 5.15,-33.374 1.569,-6.094 3.422,-12.15 5.515,-17.672 2.097,-5.517 4.24,-10.573 6.304,-14.703 l -1.608,3.221 c 0.786,-1.617 1.486,-3.058 2.12,-4.365 0.661,-1.294 1.303,-2.431 1.873,-3.49 1.116,-2.13 2.225,-3.797 3.224,-5.485 1.015,-1.681 2.139,-3.254 3.366,-5.166 0.657,-0.928 1.364,-1.925 2.147,-3.03 0.395,-0.55 0.792,-1.14 1.24,-1.741 0.459,-0.593 0.941,-1.218 1.45,-1.877 l -1.596,1.999 c 4.668,-6.251 10.141,-12.187 16.348,-17.254 3.071,-2.575 6.412,-4.799 9.797,-6.877 0.864,-0.49 1.745,-0.947 2.614,-1.42 0.881,-0.45 1.718,-0.982 2.632,-1.355 0.898,-0.404 1.793,-0.807 2.686,-1.208 0.448,-0.195 0.886,-0.414 1.342,-0.589 l 1.372,-0.5 c 7.276,-2.752 14.803,-4.111 21.893,-4.294 1.766,-0.199 3.535,0.18 5.257,0.346 1.685,0.259 3.338,0.512 4.958,0.761 3.235,0.503 6.334,0.985 9.267,1.441 2.21,0.48 9.812,1.697 17.103,2.874 7.294,1.155 14.278,2.254 15.24,2.577 8.788,1.302 11.934,1.694 15.971,2.268 4.037,0.566 8.972,1.258 21.36,2.995 6.612,0.947 9.824,1.653 18.007,2.79 l 0.226,-0.161 11.086,1.71 5.947,0.562 7.681,1.016 c -3.064,-0.373 -6.521,-0.731 -6.062,-0.617 5.999,0.8 13.321,1.688 19.183,2.366 2.931,0.337 5.495,0.634 7.351,0.799 1.855,0.177 2.995,0.273 3.073,0.255 9.478,1.114 18.944,2.34 28.432,3.37 -0.623,-0.148 -5.391,-0.652 -9.149,-1.158 15.169,1.873 2.783,0.09 16.691,1.729 -1.872,-0.142 0.996,0.229 1.308,0.305 3.48,0.289 9.172,0.835 15.456,1.464 6.289,0.57 13.172,1.193 19.027,1.724 l -2.233,-0.352 c 5.288,0.462 10.72,0.936 16.263,1.42 5.548,0.411 11.21,0.829 16.952,1.253 5.742,0.414 11.563,0.884 17.439,1.267 5.88,0.327 11.81,0.657 17.758,0.989 -8.539,-0.39 -6.596,0.002 0.382,0.415 l 2.804,-0.102 c 4.498,0.407 -7.294,-0.305 1.946,0.399 8.891,0.461 5.99,0.036 0.891,-0.327 3.602,0.204 7.199,0.505 10.804,0.631 0.639,-0.055 -1.895,-0.185 -2.551,-0.307 4.43,0.319 18.676,0.393 25.068,0.903 l 0.612,-0.058 c 2.976,0.104 5.747,0.202 8.358,0.293 2.612,0.038 5.063,0.074 7.395,0.108 4.664,0.074 8.852,0.14 12.903,0.204 4.051,0.066 7.963,0.13 12.075,0.197 4.114,0.042 8.428,-0.035 13.279,-0.058 0.38,0.236 7.968,0.119 13.753,0.266 14.261,-0.069 30.081,-0.824 47.259,-1.241 12.075,-0.206 3.533,0.132 8.965,0.108 0.88,-0.267 18.028,-0.988 9.126,-0.769 20.608,-0.878 26.326,-0.969 52.376,-2.359 -2.82,0.261 -5.997,0.487 -4.344,0.473 4.728,-0.234 10.747,-0.721 10.062,-0.796 l -1.249,0.047 c 3.656,-0.187 7.452,-0.382 11.343,-0.582 3.885,-0.282 7.863,-0.57 11.889,-0.863 8.048,-0.639 16.284,-1.293 24.333,-1.933 8.043,-0.724 15.901,-1.43 23.198,-2.086 7.299,-0.644 14.047,-1.123 19.859,-1.572 l -1.303,0.097 24.1,-1.989 c 11.071,-1.082 -6.662,0.436 1.52,-0.487 13,-1.047 23.242,-2.187 32.916,-3.201 9.669,-1.055 18.752,-2.176 29.443,-3.223 4.111,-0.629 9.82,-1.443 16.431,-2.268 6.61,-0.815 14.11,-1.74 21.79,-2.687 15.359,-1.892 31.43,-3.97 42.507,-5.773 l -1.259,0.356 c 5.766,-0.635 6.933,-1.074 11.159,-1.713 -0.58,0.225 -6.208,1.034 -2.627,0.63 6.081,-0.866 12.211,-1.738 18.38,-2.615 1.434,-0.207 2.872,-0.415 4.31,-0.623 l 0.781,-0.103 c 0.236,-0.031 0.594,-0.082 0.643,-0.078 0.077,0.003 0.076,-0.081 0.031,-0.122 -0.032,-0.048 -0.065,-0.096 -0.09,-0.147 -0.013,-0.026 -0.023,-0.053 -0.033,-0.08 -0.007,-0.032 -0.011,-0.031 -0.019,-0.153 l -0.006,-0.071 c -0.182,-0.003 2.055,-0.075 0.966,0.123 0.012,0.171 0.172,0.304 0.089,0.679 -0.019,0.445 -0.012,0.286 -0.016,0.316 h -0.004 l -0.039,0.002 -0.257,0.019 c -3.055,0.301 -6.21,0.699 -9.328,1.062 -12.519,1.466 -25.157,2.946 -37.832,4.431 -25.361,2.888 -50.903,5.583 -76,7.921 -18.363,1.663 -10.499,0.047 -33.624,2.389 l 6.602,-0.217 c -37.108,2.702 -75.866,5.753 -112.257,7.334 2.172,-0.043 2.238,0.049 5.788,-0.144 -3.834,0.323 -10.937,0.699 -17.099,0.951 -3.082,0.108 -5.927,0.208 -8.011,0.281 -1.043,0.02 -1.894,0.036 -2.489,0.048 -0.596,0.005 -0.934,-0.003 -0.952,-0.026 -5.666,0.278 -1.307,0.226 -4.792,0.475 -7.705,0.479 -19.365,0.519 -23.455,0.887 -0.695,0.06 2.17,-0.006 3.582,-0.045 -5.029,0.103 -23.417,0.838 -18.611,0.424 -13.662,0.557 -26.144,0.632 -37.043,0.988 -7.114,-0.123 -23.398,0.495 -25.66,0.117 0.984,0.418 -23.965,0.495 -32.611,0.242 2.895,0.13 -7.515,0.09 -4.127,0.266 -9.863,-0.001 -18.91,-0.381 -17.185,-0.527 -4.547,-0.008 -9.106,-0.099 -13.545,-0.223 -2.219,-0.07 -4.408,-0.139 -6.552,-0.207 -2.142,-0.095 -4.234,-0.269 -6.267,-0.397 -8.127,-0.548 -15.259,-1.02 -20.39,-1.038 -29.227,-2.394 -56.168,-5.563 -82.288,-9.086 0.899,0.442 28.899,3.72 27.741,3.886 -6.206,-0.772 -11.743,-1.558 -16.954,-2.253 -5.206,-0.731 -10.095,-1.318 -14.951,-2.084 -4.863,-0.719 -9.719,-1.437 -14.893,-2.203 -2.588,-0.372 -5.256,-0.755 -8.043,-1.156 -2.784,-0.423 -5.687,-0.864 -8.752,-1.329 -6.351,-0.931 3.582,0.691 5.717,1.075 -24.681,-3.853 -47.712,-7.494 -69.604,-11.306 0.028,0.018 0.632,0.133 1.508,0.292 0.877,0.156 2.025,0.362 3.139,0.56 -4.32,-0.727 -10.055,-1.626 -9.545,-1.676 l 4.206,0.734 c 6.93,0.952 -17.09,-3.241 -17.848,-3.464 3.636,0.791 -1.781,-0.083 -6.66,-0.855 -4.881,-0.766 -9.226,-1.412 -3.436,-0.244 -2.841,-0.485 -6.4,-1.121 -5.734,-1.099 -4.225,-0.657 -5.572,-0.826 -1.307,-0.038 -15.472,-2.565 -9.944,-1.852 -23.993,-3.978 0.021,0.033 0.739,0.162 1.632,0.32 0.892,0.162 1.958,0.356 2.683,0.488 -7.095,-1.174 -14.213,-2.47 -26.124,-3.973 0.711,0.13 -0.675,-0.013 2.873,0.468 -5.109,-0.674 -9.828,-1.41 -14.409,-1.954 -4.582,-0.538 -9.007,-1.057 -13.492,-1.584 -1.123,-0.126 -2.247,-0.277 -3.382,-0.382 -1.137,-0.092 -2.281,-0.184 -3.435,-0.277 -2.31,-0.183 -4.663,-0.369 -7.088,-0.561 -1.212,-0.093 -2.442,-0.188 -3.693,-0.284 -1.251,-0.092 -2.523,-0.215 -3.823,-0.219 -2.6,-0.059 -5.299,-0.12 -8.124,-0.184 3.33,0.196 1.408,0.166 -1.495,0.106 -1.451,-0.024 -3.149,-0.08 -4.557,-0.074 -1.403,0.062 -2.519,0.124 -2.815,0.181 -1.007,0.036 -2.017,0.038 -3.022,0.101 l -3.01,0.289 c -1,0.117 -2.013,0.146 -3.004,0.336 l -2.982,0.496 2.385,-0.454 1.194,-0.228 1.205,-0.148 c -5.249,0.7 -10.179,1.659 -14.741,3.202 -2.322,0.647 -4.478,1.626 -6.656,2.449 -1.066,0.469 -2.1,0.989 -3.141,1.48 l -1.553,0.745 c -0.51,0.26 -0.999,0.559 -1.497,0.836 1.136,-0.665 2.337,-1.203 3.53,-1.755 1.198,-0.541 2.364,-1.151 3.607,-1.586 -6.119,2.54 -11.897,5.889 -17.19,9.88 l 2.253,-1.688 c 0.745,-0.573 1.559,-1.046 2.334,-1.574 l 2.354,-1.545 2.449,-1.392 c -1.174,0.654 -2.056,1.108 -2.683,1.482 -0.623,0.383 -1.025,0.63 -1.289,0.792 -0.53,0.316 -0.511,0.276 -0.579,0.297 -0.067,0.021 -0.221,0.104 -1.1,0.666 -0.905,0.523 -2.427,1.683 -5.265,3.803 0.586,-0.419 0.315,-0.269 -0.405,0.352 -0.728,0.611 -1.948,1.637 -3.37,2.833 -1.34,1.286 -2.928,2.697 -4.313,4.143 -1.357,1.474 -2.708,2.792 -3.563,3.887 l 0.023,-0.028 c -0.868,0.99 -1.743,1.985 -2.648,3.015 -0.85,1.077 -1.729,2.188 -2.658,3.364 -1.804,2.392 -3.713,5.117 -5.781,8.467 -1.061,1.748 1.035,-1.292 0.346,-0.154 -0.754,1.058 -1.83,2.985 -3.201,5.288 -0.631,1.184 -1.317,2.472 -2.033,3.818 -0.711,1.349 -1.365,2.799 -2.069,4.236 -2.74,5.792 -4.954,11.994 -6.068,15.089 0.751,-2.062 0.863,-2.144 0.64,-1.459 -0.532,1.354 -0.975,2.739 -1.439,4.117 -0.74,2.353 -1.059,3.731 -1.236,4.404 -0.169,0.677 -0.145,0.662 -0.011,0.284 -0.502,1.784 -0.816,3.062 -1.02,3.959 -0.22,0.892 -0.346,1.398 -0.409,1.655 -0.136,0.511 -0.041,0.018 0.037,-0.391 0.077,-0.409 0.137,-0.733 -0.072,0.117 -0.221,0.847 -0.68,2.877 -1.46,7.208 0.231,-1.362 0.142,-0.707 0.715,-3.528 -1.764,8.663 -2.646,17.194 -2.703,25.552 -0.007,4.186 -0.014,8.326 -0.021,12.437 0,2.056 -10e-4,4.104 -0.002,6.147 l 0.003,3.059 c 0.004,0.494 0.006,1.121 -0.528,1.532 -0.27,0.229 -0.672,-10e-4 -0.852,-0.157 -0.217,-0.171 -0.383,-0.373 -0.549,-0.574 -0.733,-0.975 -0.601,-0.721 0.027,0.124 0.169,0.207 0.359,0.446 0.716,0.663 0.203,0.114 0.48,0.167 0.694,0.005 0.228,-0.154 0.35,-0.363 0.434,-0.569 0.174,-0.432 0.129,-0.89 0.137,-1.298 10e-4,-0.424 0.002,-0.858 0.003,-1.292 0.007,-3.466 0.013,-6.846 0.064,-4.099 -0.003,1.466 -0.006,2.938 -0.009,4.416 l -0.003,1.109 c -0.004,0.35 0.029,0.786 -0.147,1.202 -0.084,0.2 -0.206,0.417 -0.455,0.584 -0.235,0.168 -0.549,0.12 -0.789,-0.03 C 12.798,12.372 12.569,12.063 12.326,11.76 11.423,10.518 10.751,9.173 10.162,7.773 9.703,6.343 9.244,4.91 8.783,3.474 6.917,-2.23 4.88,-7.923 2.706,-13.537 c -4.373,-11.207 -9.23,-22.176 -15.122,-31.869 0.731,1.203 1.455,2.411 2.145,3.638 -0.72,-1.393 -2.785,-5.095 -5.885,-9.349 -1.552,-2.12 -3.369,-4.38 -5.475,-6.436 -2.097,-2.045 -4.515,-3.931 -7.202,-4.898 1.304,0.488 2.095,0.961 2.487,1.219 0.397,0.253 0.414,0.277 0.096,0.08 -1.643,-0.985 -3.487,-1.716 -5.429,-1.834 -1.928,-0.087 -3.952,0.286 -5.639,1.385 -1.703,1.062 -3.087,2.643 -4.181,4.436 -1.098,1.8 -1.932,3.813 -2.621,5.929 -1.362,4.248 -2.168,8.92 -2.743,13.954 -0.568,5.041 -0.857,10.467 -1.009,16.35 l 0.11,-2.915 c -0.143,4.576 -0.206,10.605 -0.164,16.726 0.027,6.121 0.203,12.334 0.616,17.262 0.215,2.924 0.829,8.553 0.435,5.137 0.427,3.789 0.708,7.556 0.814,11.286 0.05,1.865 0.09,3.721 0.093,5.567 0.017,1.845 0.026,3.686 -0.114,5.515 -0.07,0.913 -0.17,1.825 -0.365,2.722 -0.108,0.446 -0.218,0.895 -0.426,1.317 -0.103,0.209 -0.225,0.415 -0.397,0.59 -0.078,0.092 -0.195,0.153 -0.299,0.223 -0.137,0.007 -0.313,0.143 -0.398,-0.018 -0.464,-0.89 -0.693,-1.703 -1.02,-2.563 -0.297,-0.852 -0.593,-1.701 -0.888,-2.548 -1.138,-3.403 -2.265,-6.777 -3.384,-10.125 -4.371,-13.426 -8.608,-26.439 -12.8,-39.313 0.994,3.08 2.357,7.346 1.566,4.896 l -7.064,-21.949 c 0.572,1.745 0.941,2.874 2.448,7.476 -0.891,-2.782 -2.877,-8.978 -4.621,-14.418 3.166,9.874 -0.066,-0.074 -1.451,-4.333 0.237,0.713 -0.226,-0.75 -0.102,-0.392 -3.683,-11.465 -0.621,-1.933 -5.646,-17.579 l 0.256,0.832 c -1.885,-5.859 -3.621,-11.256 -5.655,-17.576 -0.867,-2.612 2.004,6.238 2.115,6.646 -2.863,-8.87 -5.649,-17.502 -8.242,-25.534 1.218,3.767 2.969,9.186 4.186,12.953 -2.846,-8.741 -3.174,-9.751 -5.288,-16.241 l 0.208,0.639 -4.91,-15 1.259,3.818 c -1.798,-5.549 -3.646,-11.193 -5.729,-17.292 -0.526,-1.523 -1.057,-3.077 -1.655,-4.648 -0.241,-0.817 -0.789,-1.479 -1.255,-2.202 -0.473,-0.718 -0.939,-1.455 -1.48,-2.15 -0.534,-0.696 -1.182,-1.336 -1.979,-1.764 -0.804,-0.414 -1.742,-0.552 -2.664,-0.472 -1.847,0.032 -3.769,0.916 -4.865,2.569 0.541,-0.788 1.194,-1.348 1.831,-1.734 0.655,-0.353 1.269,-0.571 1.815,-0.68 0.275,-0.045 0.525,-0.101 0.759,-0.128 0.235,-0.012 0.449,-0.024 0.643,-0.035 0.389,-0.037 0.699,0.011 0.94,0.02 0.479,0.072 0.682,0.13 0.699,0.142 0.017,0.009 -0.144,-0.053 -0.425,-0.09 -0.552,-0.111 -1.569,-0.095 -2.343,0.056 -0.392,0.055 -0.718,0.154 -0.911,0.227 -0.196,0.064 -0.263,0.088 -0.124,0.045 -0.944,0.316 -1.915,0.963 -2.596,1.834 -0.695,0.862 -1.108,1.885 -1.345,2.752 -0.441,1.752 -0.404,2.859 -0.357,1.99 -0.1,0.921 -0.073,1.811 -0.079,2.679 0,0.867 -10e-4,1.711 -10e-4,2.548 0.01,1.674 -0.023,3.321 0.023,5.06 0.076,3.479 0.319,7.336 0.711,12.562 0.038,0.468 0.63,7.92 0.51,6.249 0.849,9.62 -0.214,-2.273 -0.133,-1.464 1.234,14.832 3.261,34.834 5.485,56.128 1.962,18.357 2.325,21.754 4.147,38.789 0.624,5.749 -0.506,-4.708 -0.506,-4.708 0.503,4.638 0.943,8.701 1.375,12.697 0.215,1.998 0.426,3.979 0.644,6.008 0.184,2.03 0.491,4.101 0.559,6.297 -0.004,-0.89 -0.006,-0.876 10e-4,-0.306 -0.016,0.284 0.036,0.715 -0.036,1.227 -0.067,0.115 -0.192,0.196 -0.332,0.224 -0.14,0.015 -0.292,-0.039 -0.409,-0.134 -0.251,-0.174 -0.449,-0.434 -0.654,-0.698 -3.71,-5.998 -2.147,-4.203 -6.962,-12.163 0.864,1.342 1.906,3.107 3.511,6.106 -0.984,-1.83 -1.98,-3.648 -3.074,-5.409 -1.1,-1.752 -2.272,-3.488 -3.774,-4.937 -0.755,-0.705 -1.627,-1.351 -2.656,-1.583 -0.261,-0.017 -0.521,-0.076 -0.783,-0.036 -0.259,0.035 -0.514,0.102 -0.763,0.185 -0.498,0.168 -0.971,0.409 -1.406,0.707 -0.431,0.3 -0.828,0.667 -1.098,1.124 -0.269,0.455 -0.35,1.025 -0.186,1.533 0.334,1.022 1.094,1.831 1.811,2.618 0.395,0.411 0.369,0.381 0.072,0.075 -0.289,-0.313 -0.867,-0.897 -1.41,-1.716 -0.259,-0.41 -0.524,-0.896 -0.556,-1.447 -0.041,-0.553 0.232,-1.09 0.584,-1.497 0.729,-0.825 1.72,-1.26 2.437,-1.474 -0.578,0.173 -1.157,0.434 -1.683,0.807 -0.522,0.365 -1.022,0.854 -1.244,1.498 -0.234,0.654 10e-4,1.374 0.366,1.957 0.363,0.597 0.826,1.139 1.309,1.661 0.521,0.49 0.905,1.104 1.341,1.672 0.423,0.579 0.847,1.158 1.268,1.734 0.833,1.158 1.655,2.303 2.447,3.405 3.152,4.422 5.676,8.263 6.477,9.523 -1.118,-1.74 -2.269,-3.459 -3.437,-5.166 1.978,2.918 1.027,1.494 -0.445,-0.65 -4.729,-6.807 -6.964,-9.717 -7.246,-10.091 1.234,1.627 2.428,3.287 3.622,4.944 -0.462,-0.639 -1.033,-1.428 -1.694,-2.341 -0.333,-0.454 -0.689,-0.94 -1.065,-1.452 -0.388,-0.503 -0.743,-1.078 -1.254,-1.56 -0.475,-0.511 -0.956,-1.065 -1.345,-1.711 -0.395,-0.622 -0.636,-1.48 -0.23,-2.207 0.372,-0.712 1.053,-1.241 1.791,-1.618 0.736,-0.359 1.599,-0.69 2.451,-0.442 0.843,0.209 1.587,0.719 2.249,1.295 0.667,0.579 1.258,1.25 1.811,1.951 1.113,1.399 2.07,2.928 2.978,4.453 1.808,3.057 3.327,6.169 4.876,8.837 -0.864,-1.481 -1.653,-3.004 -2.465,-4.514 1.007,1.853 1.95,3.744 3.091,5.519 0.303,0.426 0.597,0.884 1.041,1.176 0.23,0.14 0.569,0.04 0.662,-0.22 0.019,-0.263 0.005,-0.527 0.01,-0.79 0.017,-0.528 -0.025,-1.054 -0.077,-1.579 -0.043,-0.526 -0.093,-1.05 -0.15,-1.575 -0.283,-2.676 -0.457,-4.509 0.144,1.553 -0.887,-8.799 -0.812,-7.787 -1.62,-15.343 -0.091,-0.833 -0.05,-0.456 0.033,0.316 l -0.929,-8.593 c 0.177,1.645 -0.14,-1.3 0.414,3.85 -1.661,-15.424 -2.677,-24.863 -3.303,-30.678 l 0.136,1.29 c -2.203,-21.124 -0.237,-2.278 -1.891,-18.127 l -1.127,-10.805 -0.207,-2.107 c -0.222,-2.205 -0.499,-4.955 -0.581,-5.771 -0.806,-8.225 0.142,1.401 -0.323,-3.372 -0.528,-5.318 -1.237,-12.651 -1.784,-18.959 -0.581,-6.306 -0.949,-11.591 -1.065,-12.79 -0.277,-3.826 0.784,10.19 -0.062,-1.187 -0.105,-1.624 -0.372,-4.912 -0.456,-9.024 -0.003,-2.056 -0.007,-4.314 -0.011,-6.669 0.015,-1.177 -0.049,-2.383 0.103,-3.589 0.139,-1.202 0.447,-2.409 1.02,-3.491 -0.368,0.655 -0.756,1.742 -0.938,2.866 -0.204,1.122 -0.204,2.262 -0.196,2.993 -10e-4,0.733 -10e-4,1.067 -0.003,0.607 0,-0.23 0,-0.658 -10e-4,-1.335 0.007,-0.675 0.033,-1.608 0.29,-2.806 0.153,-0.721 0.415,-1.541 0.859,-2.372 0.443,-0.826 1.108,-1.657 2.037,-2.248 0.922,-0.6 2.08,-0.919 3.28,-0.971 1.194,-0.116 2.499,0.202 3.474,1.031 0.978,0.817 1.678,1.916 2.381,2.973 0.349,0.533 0.698,1.064 1.062,1.579 0.317,0.56 0.501,1.16 0.728,1.738 0.854,2.33 1.609,4.57 2.271,6.52 0.083,0.251 1.472,4.438 3.408,10.275 1.912,5.851 4.345,13.298 6.491,19.866 0.272,0.84 8.024,24.737 11.99,36.963 l -0.111,-0.363 c 0.769,2.395 4.816,14.999 7.767,24.189 -0.094,-0.368 -0.619,-2.024 -2.216,-7.004 l 2.789,8.637 c 0.655,2.042 1.518,4.737 3.315,10.342 l -0.672,-2.182 c 3.726,11.493 7.503,23.142 12.297,37.93 0.237,0.842 -3.933,-11.721 1.149,3.91 0.21,0.574 0.43,1.14 -0.901,-2.95 0.438,1.339 1.562,4.774 2.445,7.473 l -2.018,-6.248 c 2.195,6.726 1.149,3.522 2.904,8.899 -0.009,-0.115 1.34,3.97 1.107,3.191 -0.455,-1.372 -1.553,-4.685 -2.236,-6.743 1.998,6.061 4.47,13.369 5.356,15.759 -0.101,-0.26 -0.112,-0.256 0.1,0.362 0.11,0.309 0.274,0.769 0.51,1.428 0.121,0.319 0.267,0.723 0.447,1.103 0.021,0.032 0.033,0.075 0.068,0.095 l 0.122,-0.037 c 0.08,-0.025 0.19,-0.111 0.275,-0.185 0.167,-0.177 0.319,-0.402 0.424,-0.669 0.54,-1.388 0.589,-2.617 0.695,-3.551 0.076,-0.948 0.098,-1.655 0.114,-2.186 0.024,-1.062 0.014,-1.421 0.01,-1.623 -0.009,-0.404 -0.025,-0.179 -0.056,-3.701 -0.007,-1.462 -0.062,-4.118 -0.162,-6.431 -0.107,-2.314 -0.262,-4.283 -0.241,-4.386 -0.308,-3.52 -0.43,-4.166 -0.578,-5.523 -0.154,-1.555 -0.406,-4.153 -0.579,-7.072 -0.184,-2.917 -0.277,-6.154 -0.334,-8.974 -0.098,-5.64 -0.053,-9.617 -0.021,-6.093 l 0.012,1.604 c 0,-0.3 -0.001,-0.654 -0.002,-1.023 v 0.051 -0.051 c -0.017,-5.123 0.011,-10.347 0.169,-15.615 0.16,-5.267 0.45,-10.583 1.095,-15.86 0.665,-5.262 1.609,-10.546 3.639,-15.42 0.541,-1.199 1.108,-2.391 1.844,-3.479 0.703,-1.107 1.55,-2.125 2.539,-2.978 0.97,-0.876 2.122,-1.548 3.355,-1.95 0.606,-0.245 1.254,-0.32 1.886,-0.451 0.644,-0.026 1.285,-0.119 1.927,-0.053 l -0.031,-0.026 c 3.116,0.161 6.044,1.91 8.508,3.977 2.483,2.104 4.623,4.613 6.522,7.14 3.782,5.084 6.639,10.261 8.645,14.1 1.687,3.17 3.824,7.565 3.192,6.165 1.989,4.195 3.006,6.568 4.23,9.413 1.205,2.852 2.621,6.176 5.027,12.435 -1.641,-4.369 -1.357,-3.616 -1.212,-3.272 0.126,0.352 0.15,0.281 -2.268,-5.638 2.304,5.575 3.616,9.035 4.937,12.608 C 7.171,-2.792 8.512,0.894 10.41,7.091 10.105,6.03 10.123,6.042 10.355,6.74 c 0.18,0.683 0.772,2.01 1.648,3.515 0.222,0.374 0.465,0.759 0.742,1.124 0.137,0.182 0.284,0.361 0.442,0.516 0.076,0.086 0.16,0.138 0.239,0.207 0.082,0.045 0.099,0.061 0.167,0.07 0.2,0.025 0.418,-0.453 0.405,-0.886 0,-0.503 0,-1.007 0,-1.506 C 14,7.779 14.001,5.862 14.003,4.429 l 0.034,4.224 0.016,2.112 c -0.003,0.36 0.03,0.7 -0.055,0.985 -0.095,0.293 -0.244,0.538 -0.45,0.483 0.233,0.065 0.411,-0.26 0.487,-0.601 0.063,-0.331 0.026,-0.749 0.036,-1.135 C 14.072,9.714 14.072,8.943 14.072,8.182 14.071,6.658 14.07,5.171 14.069,3.706 14.064,0.776 14.06,-2.063 14.055,-4.926 l -0.112,3.095 c -0.01,-6.158 -0.186,-12.043 0.29,-17.674 0.434,-5.624 1.242,-10.965 2.266,-16.068 0.485,-2.558 1.112,-5.037 1.695,-7.487 0.674,-2.425 1.284,-4.829 2.042,-7.157 0.688,-2.35 1.509,-4.623 2.278,-6.889 0.399,-1.128 0.841,-2.234 1.254,-3.347 0.409,-1.113 0.834,-2.215 1.298,-3.297 0.67,-1.494 0.676,-1.467 0.346,-0.671 -0.329,0.796 -1.013,2.354 -1.604,3.972 -1.277,3.2 -2.344,6.566 -1.35,3.817 1.922,-5.349 4.216,-10.687 6.32,-15.038 2.152,-4.328 4.086,-7.671 5.004,-9.2 4.075,-6.662 6.502,-9.422 8.827,-12.33 0.619,-0.698 1.241,-1.401 1.911,-2.158 0.668,-0.757 1.369,-1.582 2.237,-2.443 0.856,-0.87 1.778,-1.87 2.889,-2.97 1.154,-1.056 2.404,-2.311 3.939,-3.655 -0.796,0.676 -1.464,1.449 -0.881,0.945 0.285,-0.259 0.941,-0.771 2.102,-1.713 0.578,-0.474 1.285,-1.053 2.142,-1.755 0.891,-0.656 1.939,-1.426 3.164,-2.328 1.119,-0.879 2.226,-1.536 3.175,-2.178 0.963,-0.619 1.78,-1.213 2.531,-1.644 1.498,-0.868 2.502,-1.467 3.001,-1.783 0.997,-0.631 -0.031,-0.128 -3.182,1.619 -2.323,1.444 -3.401,2.21 -3.299,2.152 -0.388,0.249 -0.79,0.508 -1.191,0.765 -0.394,0.267 -0.768,0.557 -1.134,0.82 -0.728,0.53 -1.382,1.006 -1.829,1.331 -0.897,0.646 -0.974,0.678 0.823,-0.692 l 1.221,-0.838 c 1.11,-0.881 2.866,-1.933 4.701,-3.167 0.934,-0.59 1.951,-1.125 2.93,-1.693 0.987,-0.556 1.945,-1.132 2.899,-1.56 3.724,-1.897 6.555,-2.931 4.816,-2.303 2.013,-0.782 3.23,-1.272 3.847,-1.479 0.624,-0.188 0.62,-0.175 0.168,-0.019 -0.456,0.143 -1.322,0.533 -2.463,0.986 -1.128,0.481 -2.558,0.971 -3.977,1.711 6.649,-3.077 12.216,-4.616 17.87,-5.744 5.661,-1.137 11.531,-1.566 19.034,-1.42 -2.388,-0.023 -4.586,-0.004 -2.21,0.052 11.008,0.244 13.436,0.27 14.965,0.435 1.529,0.156 2.172,0.26 9.607,0.828 2.114,0.134 2.983,0.172 3.331,0.172 0.349,0.001 0.176,-0.035 0.207,-0.051 0.03,-0.016 0.264,-0.011 1.426,0.073 1.165,0.055 3.246,0.298 6.974,0.73 9.118,0.93 1.948,0.037 -1.67,-0.41 3.399,0.385 6.685,0.757 9.825,1.112 1.571,0.168 3.105,0.331 4.598,0.491 1.493,0.162 2.937,0.368 4.341,0.538 5.611,0.704 10.495,1.317 14.37,1.803 l -7.133,-1.006 c 4.264,0.616 7.769,1.032 11.319,1.575 -1.361,-0.163 -2.725,-0.313 -4.091,-0.441 2.099,0.254 4.027,0.558 5.428,0.752 1.399,0.199 2.267,0.314 2.232,0.28 4.296,0.736 -3.331,-0.266 5.199,1.142 2.792,0.385 7.034,1.036 10.819,1.617 3.781,0.61 7.108,1.133 8.085,1.191 -17.517,-2.714 1.971,0.076 -12.855,-2.234 2.86,0.443 6.348,0.984 10.54,1.634 0.631,0.079 -0.587,-0.134 -1.726,-0.327 16.775,2.512 7.67,1.414 25.017,4.241 -2.185,-0.472 4.055,0.449 6.881,0.936 -6.99,-1.142 -3.373,-0.363 3.024,0.777 11.135,1.738 12.075,2.05 17.9,2.997 l -6.654,-1.05 c 2.234,0.484 7.796,1.384 15.541,2.695 0.678,0.018 -7.029,-1.22 -4.256,-0.805 8.57,1.642 19.49,2.931 31.473,4.997 5.576,0.802 0.572,-0.132 5.471,0.561 13.451,2.176 14.608,2.101 28.765,4.258 -4.111,-0.4 -4.82,-0.545 5.141,1.024 l -11.647,-1.708 -11.631,-1.826 c 4.97,0.825 9.932,1.7 14.907,2.49 -7.033,-1.016 -14.812,-2.346 -19.027,-2.946 7.098,1.218 6.372,1.066 2.988,0.692 4.827,0.603 9.585,1.376 14.533,2.162 4.954,0.744 10.094,1.528 15.672,2.223 l -0.28,-0.477 c 8.375,1.111 15.814,2.097 23.878,3.167 4.032,0.533 8.222,1.088 12.761,1.688 4.549,0.531 9.456,1.04 14.912,1.596 l -7.02,-0.666 c 2.907,0.486 13.465,1.471 20.525,2.271 -0.643,-0.211 3.787,0.103 6.816,0.258 -0.377,0.086 15.997,1.322 17.96,1.807 3.257,0.22 6.526,0.26 9.787,0.397 8.842,0.458 13.879,0.86 18.834,1.263 4.958,0.286 9.836,0.511 18.349,0.712 -5.123,-0.313 2.613,-0.233 -8.781,-0.652 2.839,0.071 5.537,0.139 7.535,0.189 1.998,0.058 3.298,0.112 3.342,0.171 1.661,-0.029 5.594,0.193 9.775,0.26 4.18,0.083 8.599,0.142 11.213,0.068 2.397,0.081 3.181,0.264 9.564,0.246 0.698,-0.036 -0.025,-0.084 -0.025,-0.084 0.025,0.089 9.996,0.088 4.417,0.295 17.515,-0.536 48.965,-0.469 64.202,-1.401 12.407,-0.267 27.355,-0.714 38.613,-1.151 -0.724,-0.027 -0.04,-0.09 -2.168,0.013 15.522,-0.801 9.57,0.159 27.232,-0.833 9.012,-0.723 -9.39,0.277 -3.768,-0.099 2.421,-0.711 21.325,-0.929 33.19,-1.968 l -2.879,0.123 c 9.069,-0.71 22.173,-1.026 37.003,-2.039 0,0 -0.725,-0.008 -0.093,-0.089 10.164,-0.334 29.371,-1.569 43.636,-2.586 -4.455,0.092 -6.488,0.363 -3.799,-0.094 6.393,-0.455 -1.842,0.554 10.921,-0.367 4.137,-0.458 13.328,-1.323 14.525,-1.697 l -12.029,0.959 c 6.135,-0.835 15.57,-1.249 21.902,-1.85 l -0.822,-0.084 c 18.43,-1.541 18.721,-1.172 38.513,-3.041 l -2.036,0.309 c 10.852,-0.64 9.047,-1.072 19.861,-1.844 l 3.224,-0.714 c 7.143,-0.609 25.019,-2.161 37.807,-3.495 -7.272,0.509 -22.245,1.943 -31.524,2.702 7.071,-0.707 24.019,-2.466 27.719,-2.682 -2.851,0.271 -6.448,0.56 -9.253,0.918 8.701,-0.612 20.121,-1.696 34.189,-3.315 -1.29,-0.236 7.87,-1.333 18.618,-2.63 2.697,-0.315 5.451,-0.67 8.259,-0.944 l 0.311,-0.018 h 0.105 c -0.12,-0.004 0.381,-0.033 0.635,0.323 0.126,0.163 0.164,0.334 0.173,0.445 0.005,0.071 0.005,0.029 0.008,0.049 l 0.063,0.133 c 0.104,0.213 0.249,0.531 0.296,0.744 0.063,0.229 0.09,0.41 0.123,0.562 0.012,0.144 0.092,0.308 -0.077,0.495 -0.143,0.136 -0.304,0.188 -0.474,0.26 l -0.604,0.102 c -0.405,0.067 -0.807,0.133 -1.209,0.199 -1.433,0.228 -2.837,0.451 -4.195,0.667 -5.038,0.788 -9.374,1.489 -11.895,2.005 -24.84,3.308 -49.226,6.961 -78.22,10.405 10.21,-1.823 -8.464,1.001 -6.756,0.186 -6.753,0.784 -9.329,1.079 -9.929,1.182 l -20.436,2.654 c -4.835,0.717 6.44,-0.588 5.835,-0.385 -14.793,1.687 -6.176,0.985 -15.959,2.168 1.986,-0.42 -5.184,0.225 -13.617,1.176 l 11.86,-1.5 c -10.365,0.908 -14.824,1.494 -19.306,2.082 -2.24,0.291 -4.485,0.593 -7.477,0.919 -2.995,0.306 -6.736,0.646 -11.964,1.053 l 6.623,-0.427 c -5.361,0.477 -15.248,1.357 -25.109,2.234 -9.865,0.836 -19.717,1.504 -24.992,1.717 -1.891,0.224 -4.385,0.589 0.339,0.243 -12.809,1.157 -27.102,1.985 -40.673,2.842 -3.392,0.216 -6.74,0.429 -10.009,0.638 -3.271,0.181 -6.463,0.358 -9.543,0.529 -6.16,0.339 -11.868,0.681 -16.855,1.035 l 1.956,0.027 c -4.793,0.232 -8.354,0.215 -14.345,0.695 0.313,0.039 1.936,0.027 -0.282,0.161 -2.538,0.101 -12.747,0.308 -19.096,0.664 l 5.436,-0.075 c -6.265,0.308 -11.804,0.539 -16.915,0.725 -5.112,0.165 -9.794,0.379 -14.356,0.396 -9.121,0.108 -17.736,0.173 -28.252,0.399 0.015,0.096 -1.206,0.208 -3.201,0.325 -1.996,0.107 -4.763,0.273 -7.843,0.314 -6.161,0.096 -13.561,0.212 -18.487,0.289 l 0.344,0.052 c -7.306,0.053 -14.06,0.108 -20.506,0.09 -6.446,-0.141 -12.583,-0.275 -18.653,-0.408 -3.034,-0.072 -6.051,-0.143 -9.082,-0.215 -3.03,-0.071 -6.074,-0.127 -9.158,-0.295 -6.17,-0.271 -12.513,-0.549 -19.272,-0.846 -2.099,-0.045 -4.562,-0.096 -7.319,-0.155 -2.757,-0.049 -5.803,-0.188 -9.069,-0.367 -6.535,-0.353 -13.955,-0.754 -21.692,-1.172 -1.934,-0.108 -3.888,-0.216 -5.854,-0.326 -1.963,-0.139 -3.937,-0.281 -5.913,-0.421 -3.953,-0.288 -7.913,-0.577 -11.812,-0.862 -7.795,-0.584 -15.35,-1.042 -22.07,-1.651 4.114,0.311 -0.649,-0.312 -5.425,-0.772 -6.314,-0.503 -17.417,-1.783 -16.444,-1.405 l 2.25,0.197 c -4.787,-0.077 -17.722,-1.576 -27.834,-2.6 l -1.629,-0.537 c -6.629,-0.511 -14.254,-1.397 -22.205,-2.3 -3.974,-0.464 -8.03,-0.938 -12.079,-1.412 -4.042,-0.522 -8.08,-1.044 -12.022,-1.554 -15.777,-2.01 -30.019,-4.084 -37.235,-4.863 -6.345,-0.933 -14.2,-2.145 -20.482,-3.129 l 0.315,0.215 c -17.585,-2.58 -26.355,-3.937 -48.03,-7.508 l 4.402,0.837 c -12.227,-2.011 -15.363,-2.989 -26.634,-4.869 l -3.427,-0.328 c -1.329,-0.208 -2.672,-0.442 -3.993,-0.627 l -1.966,-0.239 -0.983,-0.121 c -0.333,0 -0.67,0.022 -1.005,0.033 l -4.027,0.158 c -1.337,0.119 -2.67,0.306 -4.005,0.455 -5.319,0.759 -10.558,2.115 -15.549,4.11 -4.97,2.046 -9.688,4.652 -14.098,7.68 -4.438,2.998 -8.445,6.564 -12.21,10.3 0.286,-0.206 0.677,-0.714 3.261,-3.041 -0.464,0.429 -0.981,0.909 -1.543,1.43 -0.562,0.522 -1.116,1.14 -1.73,1.764 -0.609,0.631 -1.251,1.298 -1.918,1.99 -0.652,0.707 -1.29,1.475 -1.964,2.242 -2.717,3.052 -5.363,6.654 -7.684,9.949 -1.133,1.668 -2.15,3.284 -3.088,4.702 -0.876,1.457 -1.645,2.736 -2.255,3.749 -1.228,2.022 -1.733,3.033 -1.37,2.182 0.003,0.037 -0.16,0.371 -0.457,0.947 -0.302,0.573 -0.733,1.39 -1.264,2.397 -0.996,2.047 -2.449,4.827 -3.833,8.032 -2.884,6.36 -5.73,14.288 -7.378,19.875 l 0.608,-1.71 c -0.709,2.352 -1.278,4.127 -1.72,5.693 -0.422,1.571 -0.781,2.914 -1.172,4.375 -0.703,2.94 -1.56,6.354 -2.682,13.131 -0.482,3.222 -0.353,2.832 0.28,-1.445 -0.838,5.359 -1.067,7.459 -1.381,9.84 -0.249,2.387 -0.6,5.061 -0.858,11.634 l 0.314,-4.891 c -0.345,5.569 -0.295,8.14 -0.361,10.08 0.007,1.943 -0.034,3.259 -0.009,6.334 0.049,3.512 0.256,8.808 0.654,13.415 0.374,4.611 0.982,8.518 1.14,9.326 0.089,0.746 0.338,2.634 0.783,5.135 0.231,1.25 0.491,2.655 0.767,4.154 0.277,1.499 0.566,3.099 0.703,4.751 0.115,0.889 -0.074,-1.521 -0.284,-2.715 0.323,2.064 0.56,4.009 0.371,5.931 -0.078,0.477 -0.229,0.968 -0.562,1.371 -0.328,0.415 -0.882,0.611 -1.362,0.599 -0.892,-0.024 -1.765,-0.053 -2.605,-0.244 -0.836,-0.177 -1.648,-0.459 -2.341,-0.933 -0.694,-0.467 -1.232,-1.14 -1.536,-1.88 -0.581,-1.488 -0.478,-3.092 -0.195,-4.418 -0.233,-1.684 -0.646,-3.412 -1.004,-5.033 -0.375,-1.636 -0.763,-3.232 -1.157,-4.827 -0.802,-3.185 -1.627,-6.362 -2.588,-9.804 -0.095,-0.25 -0.319,-1.058 -0.613,-2.081 1.276,4.653 2.423,9.025 3.352,12.772 0.916,3.727 1.671,6.913 1.973,8.972 -0.254,1.118 -0.236,2.121 -0.187,2.667 0.052,0.569 0.11,0.778 0.073,0.577 -0.007,0.001 -0.029,-0.103 -0.062,-0.285 -0.022,-0.182 -0.062,-0.445 -0.068,-0.756 -0.041,-0.603 0.033,-1.512 0.184,-2.206 -0.168,-1.135 -0.477,-2.416 -0.542,-2.684 -0.043,-0.145 -0.028,-0.061 0.045,0.362 0.038,0.211 0.091,0.507 0.162,0.901 0.033,0.197 0.084,0.421 0.113,0.665 0.032,0.226 0.067,0.476 0.107,0.752 -0.003,0.009 -0.001,-0.011 -0.012,0.039 -0.011,0.051 -0.025,0.113 -0.04,0.183 -0.025,0.139 -0.055,0.31 -0.087,0.489 0.02,-0.122 0.04,-0.244 0.062,-0.374 0.022,-0.105 0.045,-0.216 0.07,-0.338 C 16.7,58.943 16.595,58.246 16.466,57.637 16.35,57.003 16.207,56.348 16.062,55.673 15.773,54.325 15.443,52.903 15.093,51.43 14.398,48.482 13.592,45.329 12.763,42.126 11.085,35.725 9.232,29.144 7.595,23.684 7.425,23.144 7.26,22.617 7.131,22.209 L 7.47,23.371 C 6.692,20.789 5.996,18.476 5.34,16.298 4.221,12.74 3.5,10.484 2.388,7.081 1.932,5.775 -1.979,-5.956 -4.132,-11.532 c 0.242,0.438 -2.558,-6.869 0.098,-0.037 -0.341,-0.886 0.406,1.055 1.75,4.795 0.301,0.848 0.653,1.845 0.851,2.403 -0.037,-0.109 -0.082,-0.243 -0.13,-0.387 1.307,3.7 2.964,8.545 4.748,14.081 C 1.768,4.819 0.233,0.125 -2.018,-6.09 c -0.987,-2.907 -2.139,-6.08 -2.803,-7.864 -1.505,-3.804 -3.776,-9.348 -6.011,-14.084 -2.2,-4.754 -4.437,-8.647 -5.032,-9.564 -1.16,-1.954 -2.454,-3.958 -4.032,-5.802 -0.791,-0.913 -1.667,-1.789 -2.689,-2.45 -0.512,-0.32 -1.063,-0.598 -1.649,-0.696 -0.574,-0.096 -1.203,0.012 -1.784,0.155 -1.163,0.364 -2.173,1.158 -2.953,2.132 -0.793,0.969 -1.418,2.076 -1.951,3.218 -1.063,2.291 -1.771,4.726 -2.359,7.121 -1.151,4.808 -1.78,9.515 -2.258,13.703 -0.468,4.192 -0.752,7.881 -0.96,10.743 -0.329,5.182 -0.305,5.961 -0.388,7.898 0.138,-2.994 0.342,-6.552 0.464,-8.168 -0.786,10.351 -1.09,30.73 -1.185,33.206 -0.237,13.083 0.213,-7.352 -0.187,10.625 l 0.076,-2.427 c -0.087,4.419 -0.238,8.639 -0.469,12.694 -0.063,2.026 -0.1,4.049 -0.583,5.981 -0.234,0.961 -0.571,1.91 -1.136,2.724 -0.547,0.811 -1.291,1.532 -2.211,1.888 -1.797,0.81 -3.891,0.612 -5.6,-0.185 -1.724,-0.804 -3.183,-2.08 -4.281,-3.593 -0.563,-0.755 -0.934,-1.631 -1.266,-2.489 l -1.037,-2.574 c -0.685,-1.718 -1.371,-3.436 -2.059,-5.161 -5.449,-13.82 -11.06,-28.098 -17.608,-46.581 0.909,2.559 1.364,3.836 1.551,4.364 -1.886,-5.262 -3.697,-10.595 -5.407,-15.992 -1.699,-5.401 -3.328,-10.856 -4.925,-16.339 -3.19,-10.968 -6.25,-22.051 -9.299,-33.118 -3.056,-11.064 -6.057,-22.126 -9.272,-33.009 -0.808,-2.719 -1.633,-5.426 -2.512,-8.107 -0.441,-1.34 -0.895,-2.673 -1.384,-3.992 -0.498,-1.311 -0.991,-2.635 -1.697,-3.844 -0.191,-0.279 -0.375,-0.618 -0.692,-0.743 -0.332,-0.058 -0.692,0.046 -1.003,0.182 -0.639,0.282 -1.125,0.851 -1.363,1.5 -0.134,0.327 -0.17,0.669 -0.135,1.019 l 0.044,1.044 0.131,2.084 c 0.211,2.773 0.422,5.535 0.632,8.284 1.064,12.493 1.179,13.847 1.829,21.473 l 0.246,2.705 1.163,13.033 c 1.729,18.473 2.994,31.988 5.183,55.379 l -0.292,-3.016 c 0.824,8.394 2.334,23.773 2.473,25.193 0.088,0.859 0.281,2.753 0.615,6.033 l 0.026,0.256 1.113,10.301 c 0.108,0.857 0.198,1.716 0.322,2.571 0.057,0.428 0.115,0.856 0.213,1.276 0.143,0.406 0.318,0.803 0.476,1.204 0.334,0.797 0.644,1.603 0.909,2.425 0.288,0.814 0.562,1.633 0.79,2.466 1.118,3.859 1.399,5.697 1.601,6.556 0.152,0.838 0.141,0.777 0.169,0.932 0.017,0.146 0.112,0.513 0.394,2.297 0.28,1.782 0.778,4.985 1.163,10.835 0.057,1.088 0.119,2.291 0.185,3.557 0.029,0.633 0.057,1.283 0.087,1.941 l 0.024,0.495 c -0.034,0.161 -0.029,0.335 -0.095,0.487 -0.125,0.308 -0.334,0.583 -0.602,0.785 -1.084,0.816 -2.479,1.051 -3.757,1.259 -1.298,0.189 -2.57,0.249 -3.746,0.27 -1.172,0.006 -2.254,-0.315 -3.052,-0.797 -0.807,-0.498 -1.232,-1.213 -1.488,-1.738 -0.476,-1.086 -0.552,-1.478 -0.294,-0.701 0.3,0.814 0.771,1.761 1.625,2.334 0.838,0.582 1.872,0.806 2.778,0.906 1.841,0 3.268,-0.16 3.398,-0.175 -0.66,0.069 -1.323,0.119 -1.987,0.143 -0.661,0 -1.333,0.101 -1.986,-0.045 -0.654,-0.114 -1.301,-0.303 -1.882,-0.627 -0.582,-0.32 -1.068,-0.809 -1.404,-1.38 -0.417,-0.603 -0.969,-2.426 -0.743,-1.726 0.063,0.171 0.161,0.506 0.386,1.031 0.236,0.505 0.58,1.281 1.48,1.899 0.444,0.304 1.014,0.545 1.682,0.704 0.336,0.072 0.694,0.146 1.075,0.175 0.384,-0.007 0.788,-0.015 1.213,-0.023 0.85,-0.032 1.786,-0.09 2.807,-0.229 1.013,-0.152 2.139,-0.342 3.246,-0.867 0.505,-0.245 0.992,-0.611 1.219,-1.135 0.219,-0.534 0.064,-1.122 0.071,-1.683 l -0.156,-3.405 c -0.119,-2.27 -0.295,-4.536 -0.532,-6.796 -0.148,-1.456 -0.334,-2.909 -0.545,-4.357 0.563,3.784 0.886,7.599 1.09,11.418 -0.354,-6.499 -0.885,-10.604 -1.711,-15.148 -0.199,-1.076 -0.573,-2.955 -1.251,-5.573 -0.6,-2.148 -1.246,-4.288 -2.1,-6.349 -0.189,-0.524 -0.462,-1.021 -0.582,-1.566 -0.118,-0.546 -0.166,-1.102 -0.252,-1.654 l -0.392,-3.323 c -0.179,-1.612 0.666,5.966 -0.329,-2.961 -0.361,-3.408 0.138,1.298 -0.46,-4.342 -0.661,-6.49 -0.468,-4.598 -1.244,-12.21 -0.107,-1.071 0.051,0.543 0.356,3.562 -0.668,-6.783 -1.766,-17.939 -2.111,-21.448 -0.647,-6.765 -2.05,-21.434 -2.126,-22.234 -0.199,-2.134 -1.114,-11.951 -1.695,-18.182 1.039,11.388 -2.148,-23.33 -1.871,-20.32 -0.373,-4.221 -1.046,-11.829 -1.79,-20.253 -0.354,-4.214 -0.725,-8.632 -1.086,-12.929 -0.164,-2.151 -0.326,-4.271 -0.483,-6.32 -0.065,-1.026 -0.129,-2.034 -0.192,-3.02 0.002,-0.495 -0.089,-0.979 0.003,-1.467 0.112,-0.473 0.337,-0.915 0.657,-1.265 -0.285,0.309 -0.633,0.866 -0.703,1.565 0.016,0.683 0.05,1.425 0.096,2.084 -0.03,-0.527 -0.068,-1.029 -0.078,-1.513 0,-0.244 -0.034,-0.473 -0.006,-0.714 0.038,-0.231 0.111,-0.449 0.195,-0.656 0.356,-0.825 1.069,-1.393 1.818,-1.546 0.189,-0.027 0.369,-0.081 0.563,-0.022 0.188,0.062 0.309,0.21 0.423,0.342 0.22,0.276 0.389,0.57 0.543,0.858 0.309,0.576 0.547,1.139 0.777,1.679 0.889,2.173 1.517,4.041 2.362,6.617 0.164,0.517 1.241,3.906 2.454,8.038 1.218,4.13 2.595,8.995 3.546,12.406 2.807,9.952 -1.677,-6.053 -0.79,-2.929 0.155,0.557 2.966,10.695 3.862,13.925 2.12,7.616 1.825,6.557 2.921,10.49 0.391,1.416 1.961,7.101 3.707,13.421 3.138,11.002 0.81,2.839 4.256,14.923 0.838,2.871 0.48,1.621 -0.085,-0.347 -0.563,-1.97 -1.331,-4.657 -1.331,-4.657"
             style="fill:#4f6e83;fill-opacity:1;fill-rule:nonzero;stroke:none"
             id="path532" /></g><g
           id="g534"
           transform="translate(439.8374,150.4745)"><path
             d="m 0,0 c -0.193,-0.54 -0.3,-0.839 -0.552,-1.543 0.28,0.763 0.547,1.488 0.818,2.227 C 0.422,1.141 0.582,1.609 0.721,2.016 0.478,1.336 0.226,0.632 0,0"
             style="fill:#4f6e83;fill-opacity:1;fill-rule:nonzero;stroke:none"
             id="path536" /></g><g
           id="g538"
           transform="translate(393.9805,149.1972)"><path
             d="M 0,0 -0.004,-0.531 C 0.001,-0.09 0.006,0.314 0.009,0.582 0.003,0.228 0.003,0.228 0,0"
             style="fill:#4f6e83;fill-opacity:1;fill-rule:nonzero;stroke:none"
             id="path540" /></g><g
           id="g542"
           transform="translate(658.3779,65.038)"><path
             d="m 0,0 -0.042,0.039 -2.17,-0.333 z"
             style="fill:#4f6e83;fill-opacity:1;fill-rule:nonzero;stroke:none"
             id="path544" /></g><g
           id="g546"
           transform="translate(366.9399,116.8515)"><path
             d="M 0,0 C -0.082,-0.251 -0.244,-0.746 -0.564,-1.727 -0.539,-1.649 -0.296,-0.906 0,0"
             style="fill:#4f6e83;fill-opacity:1;fill-rule:nonzero;stroke:none"
             id="path548" /></g><g
           id="g550"
           transform="translate(348.5645,59.9609)"><path
             d="M 0,0 -2.627,-8.037 C -1.49,-4.559 -0.662,-2.025 0,0"
             style="fill:#4f6e83;fill-opacity:1;fill-rule:nonzero;stroke:none"
             id="path552" /></g><g
           id="g554"
           transform="translate(329.2422,21.0556)"><path
             d="M 0,0 C -0.572,0.09 -0.714,0.2 -0.864,0.226 -0.83,0.215 -0.806,0.207 -0.778,0.198 -0.523,0.114 -0.268,0.031 0,0"
             style="fill:#4f6e83;fill-opacity:1;fill-rule:nonzero;stroke:none"
             id="path556" /></g><g
           id="g558"
           transform="translate(695.2505,52.4467)"><path
             d="M 0,0 C 0.609,0.104 1.21,0.207 1.748,0.299 5.847,1.016 3.06,0.539 0,0"
             style="fill:#4f6e83;fill-opacity:1;fill-rule:nonzero;stroke:none"
             id="path560" /></g><g
           id="g562"
           transform="translate(487.6553,61.5688)"><path
             d="M 0,0 C 0.74,-0.883 1.57,-1.673 2.369,-2.508 3.19,-3.322 3.957,-4.208 4.858,-5.004 3.461,-3.672 2.324,-2.382 1.442,-1.501 0.56,-0.619 0.072,-0.011 0,0"
             style="fill:#4f6e83;fill-opacity:1;fill-rule:nonzero;stroke:none"
             id="path564" /></g><g
           id="g566"
           transform="translate(936.5947,78.4467)"><path
             d="M 0,0 C -0.025,-0.001 0,-0.002 -0.025,-0.004 0.495,-0.002 0.954,0 1.475,0.002 Z"
             style="fill:#4f6e83;fill-opacity:1;fill-rule:nonzero;stroke:none"
             id="path568" /></g><g
           id="g570"
           transform="translate(500.1226,49.9579)"><path
             d="M 0,0 C -1.536,1.167 -2.846,2.366 -4.137,3.414 -5.392,4.506 -6.501,5.599 -7.609,6.607 -6.443,5.538 -5.236,4.302 -3.913,3.192 -2.576,2.102 -1.293,0.935 0,0"
             style="fill:#4f6e83;fill-opacity:1;fill-rule:nonzero;stroke:none"
             id="path572" /></g><g
           id="g574"
           transform="translate(326.8452,168.5507)"><path
             d="M 0,0 1.256,1.823 C 1.279,1.856 1.311,1.902 1.405,2.041 Z"
             style="fill:#4f6e83;fill-opacity:1;fill-rule:nonzero;stroke:none"
             id="path576" /></g><g
           id="g578"
           transform="translate(328.2505,170.5912)"><path
             d="M 0,0 1.375,2.039 C 0.744,1.102 0.197,0.292 0,0"
             style="fill:#4f6e83;fill-opacity:1;fill-rule:nonzero;stroke:none"
             id="path580" /></g><g
           id="g582"
           transform="translate(332.4346,176.9775)"><path
             d="M 0,0 C -0.911,-1.465 -1.852,-2.912 -2.809,-4.347 -1.812,-2.859 -0.616,-1 0,0"
             style="fill:#4f6e83;fill-opacity:1;fill-rule:nonzero;stroke:none"
             id="path584" /></g><g
           id="g586"
           transform="translate(335.3984,156.3867)"><path
             d="M 0,0 -0.074,-0.693 C -0.034,-0.32 -0.009,-0.085 0,0"
             style="fill:#4f6e83;fill-opacity:1;fill-rule:nonzero;stroke:none"
             id="path588" /></g><g
           id="g590"
           transform="translate(333.4121,138.0014)"><path
             d="m 0,0 c 0.474,4.384 1.19,11.002 1.852,17.121 l 0.061,0.571 C 1.602,14.812 0.451,4.168 0,0"
             style="fill:#4f6e83;fill-opacity:1;fill-rule:nonzero;stroke:none"
             id="path592" /></g><g
           id="g594"
           transform="translate(325.5669,61.2192)"><path
             d="M 0,0 C 0.444,5.146 0.954,10.286 1.44,15.427 1.178,12.731 0.833,9.187 1.508,16.201 -0.346,-3.243 1.866,20.216 0,0"
             style="fill:#4f6e83;fill-opacity:1;fill-rule:nonzero;stroke:none"
             id="path596" /></g><g
           id="g598"
           transform="translate(334.2295,22.1835)"><path
             d="m 0,0 c -0.762,-0.722 -1.502,-1.06 -2.054,-1.197 -0.553,-0.147 -0.915,-0.156 -1.11,-0.162 -0.39,-0.022 -0.13,-0.009 0.378,0.017 0.507,0.05 1.249,0.252 1.768,0.565 0.527,0.298 0.85,0.617 0.768,0.539 C 0.752,0.645 1.308,1.586 1.745,2.209 2.164,2.85 2.415,3.234 2.471,3.32 2.526,3.405 2.383,3.191 2.014,2.629 1.625,2.086 1.103,1.112 0,0"
             style="fill:#4f6e83;fill-opacity:1;fill-rule:nonzero;stroke:none"
             id="path600" /></g><g
           id="g602"
           transform="translate(438.793,128.4789)"><path
             d="M 0,0 -0.287,-0.792 C 2.38,5.054 -0.282,-0.726 0,0"
             style="fill:#4f6e83;fill-opacity:1;fill-rule:nonzero;stroke:none"
             id="path604" /></g><g
           id="g606"
           transform="translate(456.6523,148.5126)"><path
             d="M 0,0 0.05,6.245 -0.032,9.217 Z"
             style="fill:#4f6e83;fill-opacity:1;fill-rule:nonzero;stroke:none"
             id="path608" /></g><g
           id="g610"
           transform="translate(461.4043,109.6962)"><path
             d="m 0,0 -0.749,2.71 c 0.47,-1.727 0.936,-3.456 1.493,-5.157 l 0.8,-2.562 0.883,-2.535 C 1.519,-5.062 0.772,-2.526 0,0"
             style="fill:#4f6e83;fill-opacity:1;fill-rule:nonzero;stroke:none"
             id="path612" /></g><g
           id="g614"
           transform="translate(1004.1357,75.6738)"><path
             d="M 0,0 -1.933,0.325 C -6.27,0.364 -7.186,0.07 0,0"
             style="fill:#4f6e83;fill-opacity:1;fill-rule:nonzero;stroke:none"
             id="path616" /></g><g
           id="g618"
           transform="translate(1255.3301,60.8515)"><path
             d="M 0,0 C 2.715,-0.41 9.754,-1.182 14.11,-1.454 8.48,-0.882 2.873,-0.229 0,0"
             style="fill:#4f6e83;fill-opacity:1;fill-rule:nonzero;stroke:none"
             id="path620" /></g><g
           id="g622"
           transform="translate(724.4229,74.9584)"><path
             d="M 0,0 5.023,0.659 -4.451,-0.507 Z"
             style="fill:#4f6e83;fill-opacity:1;fill-rule:nonzero;stroke:none"
             id="path624" /></g><g
           id="g626"
           transform="translate(548.71,143.7524)"><path
             d="m 0,0 c 0,2.948 -1.559,4.75 -9.577,4.75 -12.25,0 -36.304,-14.74 -36.304,-27.187 0,-1.31 0.669,-1.801 1.336,-1.801 2.673,0 44.322,14.412 44.545,24.238 m -2.672,10.154 c 6.235,0 13.363,-2.129 13.363,-7.042 0,-13.102 -38.977,-28.005 -50.558,-30.953 -0.891,-0.163 -1.336,-0.655 -1.336,-0.982 0,-0.819 1.781,-1.802 4.231,-1.802 0.446,0 1.114,0 1.782,0.164 4.677,0.819 18.932,4.094 30.067,13.92 2.673,2.457 4.678,3.276 6.237,3.276 3.341,0 3.786,-4.586 3.786,-5.077 0.223,-1.31 2.895,-13.593 14.922,-13.593 13.364,0 33.632,17.687 40.536,25.712 0.446,0.982 1.337,1.474 2.45,1.474 0.891,0 1.782,-0.164 2.896,-0.819 0.891,-0.492 1.336,-0.983 1.336,-1.474 0,-0.655 -2.004,-2.784 -2.004,-2.784 -23.164,-22.273 -36.082,-29.315 -52.341,-29.315 -10.691,0 -16.482,8.352 -16.482,15.067 v 0.983 c 0,0.491 -0.444,0.819 -0.89,0.819 -0.223,0 -0.446,-0.165 -0.668,-0.492 -1.559,-1.965 -20.936,-14.739 -35.858,-14.739 -16.482,0 -16.482,8.024 -16.482,11.791 0,13.102 27.618,35.866 55.013,35.866"
             style="fill:#355971;fill-opacity:1;fill-rule:nonzero;stroke:none"
             id="path628" /></g><g
           id="g630"
           transform="translate(609.7305,137.8569)"><path
             d="m 0,0 c 0,14.739 3.563,28.66 3.563,28.66 0,0.819 -0.667,1.31 -1.781,1.31 -2.227,0 -33.854,-6.06 -39.422,-7.042 -1.113,-0.164 -2.005,-0.328 -2.895,-0.328 -2.896,0 -4.009,1.147 -4.009,2.129 0,4.422 34.522,8.353 47.217,11.136 5.123,1.147 3.564,28.333 15.591,28.333 2.45,0 3.786,-1.638 3.786,-6.715 0,-1.801 -1.782,-11.136 -3.341,-16.541 0,-0.818 0.891,-1.31 2.005,-1.31 2.672,0 42.094,8.844 50.781,8.844 3.34,0 5.79,-0.819 5.79,-1.966 0,-1.637 -2.45,-3.439 -10.468,-4.749 -1.559,-0.327 -47.663,-8.679 -47.663,-8.679 0,0 -2.672,-0.165 -3.118,-1.311 -3.341,-8.352 -4.9,-16.213 -4.9,-24.729 0,-11.792 0.891,-32.754 16.036,-32.754 13.364,0 33.632,17.687 40.536,25.712 0.446,0.982 1.336,1.474 2.45,1.474 0.891,0 1.782,-0.164 2.895,-0.819 0.892,-0.491 1.337,-0.983 1.337,-1.474 0,-0.655 -2.005,-2.784 -2.005,-2.784 C 49.222,-25.875 36.304,-32.918 20.045,-32.918 9.578,-32.918 0,-17.851 0,0"
             style="fill:#355971;fill-opacity:1;fill-rule:nonzero;stroke:none"
             id="path632" /></g><g
           id="g634"
           transform="translate(686.5659,160.457)"><path
             d="m 0,0 c 2.672,1.638 13.14,30.789 13.14,45.528 0,5.568 -1.559,9.335 -5.122,9.335 C 4.009,54.863 0,19.652 0,0 m -6.904,-47.984 c -0.446,7.369 -0.892,17.687 -0.892,29.151 0,26.203 1.782,58.465 7.573,75.17 2.227,6.551 7.573,9.99 12.695,9.99 4.455,0 10.023,-3.931 10.023,-20.799 0,-17.196 -16.704,-47.657 -22.05,-55.191 -0.668,-0.982 -1.336,-29.642 -1.336,-31.116 0,-0.819 0.668,-2.292 1.559,-2.292 0.891,0 8.018,25.548 8.686,30.133 0.445,1.146 0,6.224 6.682,6.224 7.127,0 20.713,-41.762 53.454,-41.762 9.577,0 10.245,3.603 14.7,3.603 1.559,0 3.117,-0.982 3.117,-2.62 0,-2.784 -6.682,-8.025 -21.827,-8.025 -34.967,0 -46.994,34.556 -50.335,34.556 -3.341,0 -7.127,-33.41 -16.927,-33.41 -2.005,0 -4.9,2.129 -5.122,6.388"
             style="fill:#355971;fill-opacity:1;fill-rule:nonzero;stroke:none"
             id="path636" /></g><g
           id="g638"
           transform="translate(825.3184,143.7524)"><path
             d="m 0,0 c 0,2.948 -1.56,4.75 -9.577,4.75 -12.25,0 -36.304,-14.74 -36.304,-27.187 0,-1.31 0.668,-1.801 1.336,-1.801 2.673,0 44.321,14.412 44.545,24.238 m -2.673,10.154 c 6.236,0 13.363,-2.129 13.363,-7.042 0,-13.102 -38.976,-28.005 -50.557,-30.953 -0.892,-0.163 -1.337,-0.655 -1.337,-0.982 0,-0.819 1.781,-1.802 4.231,-1.802 0.447,0 1.114,0 1.783,0.164 4.677,0.819 18.931,4.094 30.067,13.92 2.673,2.457 4.678,3.276 6.236,3.276 3.341,0 3.787,-4.586 3.787,-5.077 0.223,-1.31 2.895,-13.593 14.922,-13.593 13.364,0 33.632,17.687 40.535,25.712 0.446,0.982 1.337,1.474 2.451,1.474 0.891,0 1.782,-0.164 2.895,-0.819 0.892,-0.492 1.336,-0.983 1.336,-1.474 0,-0.655 -2.005,-2.784 -2.005,-2.784 -23.162,-22.273 -36.08,-29.315 -52.339,-29.315 -10.691,0 -16.482,8.352 -16.482,15.067 v 0.983 c 0,0.491 -0.444,0.819 -0.891,0.819 -0.222,0 -0.445,-0.165 -0.668,-0.492 -1.558,-1.965 -20.935,-14.739 -35.858,-14.739 -16.482,0 -16.482,8.024 -16.482,11.791 0,13.102 27.618,35.866 55.013,35.866"
             style="fill:#355971;fill-opacity:1;fill-rule:nonzero;stroke:none"
             id="path640" /></g><g
           id="g642"
           transform="translate(886.3389,137.8569)"><path
             d="m 0,0 c 0,14.739 3.563,28.66 3.563,28.66 0,0.819 -0.667,1.31 -1.781,1.31 -2.228,0 -33.854,-6.06 -39.423,-7.042 -1.113,-0.164 -2.005,-0.328 -2.895,-0.328 -2.895,0 -4.009,1.147 -4.009,2.129 0,4.422 34.523,8.353 47.217,11.136 5.123,1.147 3.563,28.333 15.592,28.333 2.45,0 3.785,-1.638 3.785,-6.715 0,-1.801 -1.781,-11.136 -3.34,-16.541 0,-0.818 0.891,-1.31 2.005,-1.31 2.672,0 42.094,8.844 50.779,8.844 3.342,0 5.792,-0.819 5.792,-1.966 0,-1.637 -2.45,-3.439 -10.469,-4.749 -1.558,-0.327 -47.662,-8.679 -47.662,-8.679 0,0 -2.674,-0.165 -3.118,-1.311 -3.341,-8.352 -4.9,-16.213 -4.9,-24.729 0,-11.792 0.891,-32.754 16.036,-32.754 13.364,0 33.632,17.687 40.536,25.712 0.445,0.982 1.337,1.474 2.45,1.474 0.891,0 1.781,-0.164 2.896,-0.819 0.889,-0.491 1.336,-0.983 1.336,-1.474 0,-0.655 -2.005,-2.784 -2.005,-2.784 C 49.222,-25.875 36.304,-32.918 20.044,-32.918 9.577,-32.918 0,-17.851 0,0"
             style="fill:#355971;fill-opacity:1;fill-rule:nonzero;stroke:none"
             id="path644" /></g><g
           id="g646"
           transform="translate(965.623,149.6484)"><path
             d="m 0,0 c 0,-3.112 -1.113,-33.082 -2.45,-37.176 -0.667,-3.275 -3.564,-3.93 -5.567,-3.93 -2.45,0 -2.228,2.456 -2.45,3.93 0.222,2.129 0.446,4.586 0.446,7.206 0,9.662 -1.783,21.782 -1.783,27.677 0,1.147 0,2.129 0.446,2.784 0,1.638 3.341,3.93 6.236,3.93 C -1.113,4.421 0,2.948 0,0 m -13.141,23.091 c 0,2.129 2.451,6.551 7.127,6.551 3.119,0 6.683,-2.456 6.683,-5.895 0,-4.259 -4.678,-7.37 -6.904,-7.37 -6.906,0 -6.906,5.404 -6.906,6.714"
             style="fill:#355971;fill-opacity:1;fill-rule:nonzero;stroke:none"
             id="path648" /></g><g
           id="g650"
           transform="translate(1022.1914,109.852)"><path
             d="m 0,0 c 0,0.492 -0.892,0.655 -1.782,0.655 -14.477,0 -22.719,1.147 -24.278,1.474 -0.668,-0.164 -0.89,-0.327 -0.89,-0.655 0,-3.112 10.245,-5.732 15.368,-5.732 C -4.232,-4.258 0,-0.819 0,0 m 13.14,7.697 c 0,-15.23 -20.267,-17.359 -24.946,-17.359 -22.271,0 -30.29,15.23 -30.29,18.342 0.668,1.638 2.45,1.801 3.786,1.801 1.559,0 5.792,-4.421 33.631,-4.421 3.564,0 4.901,0.655 4.901,1.31 0,7.206 -36.081,17.687 -36.081,33.081 0,6.223 7.796,15.722 22.272,15.722 16.705,0 27.841,-14.084 27.841,-16.213 0,-1.147 -0.669,-3.603 -3.787,-3.603 -1.781,0 -2.45,1.31 -2.895,2.129 -9.132,10.972 -20.267,12.61 -21.604,12.61 -9.132,0 -12.472,-2.784 -12.472,-6.223 0,-13.92 39.644,-19.816 39.644,-37.176"
             style="fill:#355971;fill-opacity:1;fill-rule:nonzero;stroke:none"
             id="path652" /></g><g
           id="g654"
           transform="translate(1058.7158,137.8569)"><path
             d="m 0,0 c 0,14.739 3.563,28.66 3.563,28.66 0,0.819 -0.668,1.31 -1.782,1.31 -2.227,0 -33.853,-6.06 -39.422,-7.042 -1.114,-0.164 -2.005,-0.328 -2.895,-0.328 -2.897,0 -4.01,1.147 -4.01,2.129 0,4.422 34.523,8.353 47.218,11.136 5.123,1.147 3.563,28.333 15.59,28.333 2.45,0 3.787,-1.638 3.787,-6.715 0,-1.801 -1.782,-11.136 -3.341,-16.541 0,-0.818 0.891,-1.31 2.004,-1.31 2.674,0 42.096,8.844 50.781,8.844 3.342,0 5.791,-0.819 5.791,-1.966 0,-1.637 -2.449,-3.439 -10.468,-4.749 -1.558,-0.327 -47.663,-8.679 -47.663,-8.679 0,0 -2.673,-0.165 -3.118,-1.311 -3.342,-8.352 -4.9,-16.213 -4.9,-24.729 0,-11.792 0.891,-32.754 16.037,-32.754 13.362,0 33.631,17.687 40.536,25.712 0.444,0.982 1.335,1.474 2.448,1.474 0.892,0 1.783,-0.164 2.897,-0.819 0.89,-0.491 1.337,-0.983 1.337,-1.474 0,-0.655 -2.005,-2.784 -2.005,-2.784 C 49.221,-25.875 36.304,-32.918 20.044,-32.918 9.576,-32.918 0,-17.851 0,0"
             style="fill:#355971;fill-opacity:1;fill-rule:nonzero;stroke:none"
             id="path656" /></g><g
           id="g658"
           transform="translate(1137.999,149.6484)"><path
             d="m 0,0 c 0,-3.112 -1.113,-33.082 -2.45,-37.176 -0.668,-3.275 -3.564,-3.93 -5.569,-3.93 -2.448,0 -2.226,2.456 -2.448,3.93 0.222,2.129 0.446,4.586 0.446,7.206 0,9.662 -1.783,21.782 -1.783,27.677 0,1.147 0,2.129 0.446,2.784 0,1.638 3.339,3.93 6.236,3.93 C -1.113,4.421 0,2.948 0,0 m -13.141,23.091 c 0,2.129 2.451,6.551 7.127,6.551 3.119,0 6.683,-2.456 6.683,-5.895 0,-4.259 -4.678,-7.37 -6.905,-7.37 -6.905,0 -6.905,5.404 -6.905,6.714"
             style="fill:#355971;fill-opacity:1;fill-rule:nonzero;stroke:none"
             id="path660" /></g><g
           id="g662"
           transform="translate(1188.7764,135.5639)"><path
             d="m 0,0 c -2.005,0 -3.785,0.164 -5.345,0.655 -0.89,0.491 -1.113,1.147 -1.113,1.802 0,3.275 7.35,8.679 8.908,8.679 3.342,0 2.005,-4.094 7.35,-4.094 2.895,0 4.9,2.784 4.9,5.405 0,2.948 -2.45,5.732 -7.573,5.732 -12.917,0 -24.944,-10.973 -24.944,-23.747 0,-7.697 3.117,-18.179 23.609,-18.179 14.477,0 37.862,20.308 44.989,28.005 0.446,0.983 1.337,1.474 2.45,1.474 0.892,0 1.782,-0.164 2.896,-0.819 0.891,-0.491 1.336,-0.982 1.336,-1.474 0,-0.655 -2.005,-2.784 -2.005,-2.784 C 32.296,-21.618 15.146,-31.28 -2.227,-31.28 c -18.485,0 -26.282,11.3 -26.282,22.764 0,22.764 31.405,32.099 40.314,32.099 9.354,0 12.918,-4.258 12.918,-7.37 C 24.723,6.551 10.914,0 0,0"
             style="fill:#355971;fill-opacity:1;fill-rule:nonzero;stroke:none"
             id="path664" /></g><g
           id="g666"
           transform="translate(1271.8066,245.3251)"><path
             d="m 0,0 c -11.273,0 -37.577,-7.508 -37.577,-25.901 0,-38.29 96.697,-74.702 96.697,-111.302 0,-6.006 -4.008,-13.889 -19.539,-13.889 -28.809,0 -62.378,23.837 -74.402,42.418 0,0.563 0.25,0.751 0.501,0.751 0.751,0 2.756,-0.938 4.008,-0.938 2.003,0 3.757,0.75 3.757,2.252 0,4.129 -18.788,17.08 -20.541,17.08 -2.756,0 -6.262,-2.816 -6.262,-6.945 0,-12.2 35.572,-62.126 89.933,-62.126 25.551,0 34.57,15.203 34.57,28.905 0,35.661 -94.693,76.953 -94.693,107.735 0,8.071 6.263,16.517 23.798,16.517 17.786,0 30.366,-5.439 48.098,-16.517 3.173,-1.982 5.951,-3.804 8.454,-5.54 0.54,-0.273 1.189,-0.737 1.921,-1.356 11.401,-8.18 16.9,-14.73 28.455,-27.452 C 93.576,-63.352 44.09,0 0,0"
             style="fill:#355971;fill-opacity:1;fill-rule:nonzero;stroke:none"
             id="path668" /></g><g
           id="g670"
           transform="translate(274.9414,40.8349)"><path
             d="M 0,0 C 0,-0.018 -0.001,-0.035 -0.003,-0.052 -0.001,-0.035 0,-0.018 0,0 m -85.004,13.478 c -0.287,-1.48 -1.641,-2.509 -3.145,-2.43 -0.012,10e-4 -0.025,10e-4 -0.038,0.002 -1.65,0.088 -3.161,0.966 -4.031,2.371 -12.127,19.563 -19.136,59.159 -33.818,37.892 -1.48,-2.144 -3.286,-5.973 -4.058,-8.46 -25.187,-81.167 -56.763,-20.246 -60.745,21.417 -0.88,9.211 4.393,11.68 8.327,3.252 9.727,-20.839 20.404,-61.389 33.425,-40.757 0.675,1.068 5.252,15.427 5.604,16.641 24.597,84.77 48.509,17.178 57.987,-18.449 1.311,-4.928 0.969,-9.014 0.492,-11.479 m 45.36,52.731 c -0.16,0.114 -0.189,0.329 -0.068,0.481 10.256,12.932 23.518,23.277 39.771,25.072 V 225.34 h -275 V 71.448 c 5.079,-17.823 23.35,-40.436 39.7,-53.466 0.16,-0.128 0.191,-0.371 0.07,-0.543 -10.243,-14.583 -23.5,-26.252 -39.77,-28.146 v -30.128 h 275 v 57.019 c -5.516,9.213 -23.939,38.78 -39.703,50.025"
             style="fill:#355971;fill-opacity:1;fill-rule:nonzero;stroke:none"
             id="path672" /></g><g
           id="g674"
           transform="translate(274.938,40.7831)"><path
             d="m 0,0 c -0.047,-0.345 -0.545,-0.408 -0.658,-0.054 -4.932,15.411 -27.244,37.853 -38.838,44.705 -3.262,1.927 -7.521,0.948 -9.534,-2.262 -10.671,-17.021 2.451,-62.405 -23.536,-63.163 -10.489,-2.852 -34.634,43.732 -42.989,50.536 -0.204,0.166 -0.507,0.047 -0.549,-0.213 -9.213,-56.92 -52.066,-66.09 -74.787,-7.063 -0.003,0.009 -0.007,0.017 -0.011,0.026 -5.999,11.917 -8.104,23.44 -10.869,14.226 -0.009,-0.029 -0.014,-0.058 -0.015,-0.088 -0.225,-9.095 -27.293,-70.887 -72.878,-60.863 -0.158,0.035 -0.274,0.178 -0.274,0.34 v -16.91 h 275 V 0.128"
             style="fill:#8da484;fill-opacity:1;fill-rule:nonzero;stroke:none"
             id="path676" /></g><g
           id="g678"
           transform="translate(0,111.7382)"><path
             d="m 0,0 c 0.012,0.103 0.047,0.156 0.104,0.22 1.673,1.881 2.892,0.883 4.955,-0.695 0.007,-0.005 0.014,-0.012 0.022,-0.018 16.006,-14.142 31.668,-33.776 39.702,-33.915 0.056,-10e-4 0.111,0.011 0.163,0.032 17.951,7.391 0.26,67.871 27.682,67.455 10.489,2.851 34.635,-43.732 42.989,-50.537 0.204,-0.167 0.478,-0.041 0.549,0.213 16.078,56.92 52.067,66.089 74.787,7.062 0.004,-0.008 0.007,-0.017 0.011,-0.025 5.999,-11.917 8.104,-23.44 10.87,-14.225 0.008,0.028 0.014,0.057 0.014,0.087 0.229,9.091 28.7,70.217 72.876,60.862 C 274.883,36.481 275,36.338 275,36.175 V 154.437 H 0 V 0"
             style="fill:#8da484;fill-opacity:1;fill-rule:nonzero;stroke:none"
             id="path680" /></g></g></g></g></svg>
