<svg
   version="1.1"
   id="svg1"
   xml:space="preserve"
   width="309.70862"
   height="202.72021"
   xmlns:inkscape="http://www.inkscape.org/namespaces/inkscape"
   xmlns:sodipodi="http://sodipodi.sourceforge.net/DTD/sodipodi-0.dtd"
   xmlns="http://www.w3.org/2000/svg"
   xmlns:svg="http://www.w3.org/2000/svg"><defs
     id="defs1" /><sodipodi:namedview
     id="namedview1"
     pagecolor="#ffffff"
     bordercolor="#000000"
     borderopacity="0.25"
     inkscape:showpageshadow="2"
     inkscape:pageopacity="0.0"
     inkscape:pagecheckerboard="0"
     inkscape:deskcolor="#d1d1d1" /><inkscape:clipboard
     min="71.696931,119.13018"
     max="381.40554,321.85039"
     geom-min="77.31312,124.74636"
     geom-max="375.78935,316.2342" /><g
     id="g1"
     transform="matrix(3.7795276,0,0,3.7795276,-71.696932,-119.13018)"><path
       d="M 45.78801,33.005809 A 25.332175,25.332175 0 0 0 20.455763,58.338056 25.332175,25.332175 0 0 0 45.78801,83.6703 25.332175,25.332175 0 0 0 59.941681,79.283527 25.332175,25.332175 0 0 1 48.763107,58.338056 25.332175,25.332175 0 0 1 59.982532,37.367707 25.332175,25.332175 0 0 0 45.78801,33.005809 Z"
       style="fill:#dbe2e3;fill-rule:evenodd;stroke:#216778;stroke-width:2.9719;stroke-linecap:round;stroke-linejoin:round"
       id="path2" /><path
       d="M 59.982532,37.367707 A 25.332175,25.332175 0 0 1 71.120255,58.338056 25.332175,25.332175 0 0 1 59.941681,79.283527 25.332175,25.332175 0 0 0 74.095353,83.6703 25.332175,25.332175 0 0 0 99.427599,58.338056 25.332175,25.332175 0 0 0 74.095353,33.005809 25.332175,25.332175 0 0 0 59.982532,37.367707 Z"
       style="fill:#dbe2e3;fill-rule:evenodd;stroke:#216778;stroke-width:2.9719;stroke-linecap:round;stroke-linejoin:round"
       id="path4" /><path
       d="M 59.982532,37.367707 A 25.332175,25.332175 0 0 0 48.763107,58.338056 25.332175,25.332175 0 0 0 59.941681,79.283527 25.332175,25.332175 0 0 0 71.120255,58.338056 25.332175,25.332175 0 0 0 59.982532,37.367707 Z"
       style="fill:#93a7ac;fill-rule:evenodd;stroke:#216778;stroke-width:2.9719;stroke-linecap:round;stroke-linejoin:round"
       id="path3" /></g></svg>