<?xml version="1.0" encoding="UTF-8" standalone="no"?>
<!-- Created with Inkscape (http://www.inkscape.org/) -->

<svg
   version="1.1"
   id="svg1"
   xml:space="preserve"
   width="309.70862"
   height="202.72021"
   xmlns:inkscape="http://www.inkscape.org/namespaces/inkscape"
   xmlns:sodipodi="http://sodipodi.sourceforge.net/DTD/sodipodi-0.dtd"
   xmlns="http://www.w3.org/2000/svg"
   xmlns:svg="http://www.w3.org/2000/svg"><defs
     id="defs1" /><sodipodi:namedview
     id="namedview1"
     pagecolor="#ffffff"
     bordercolor="#000000"
     borderopacity="0.25"
     inkscape:showpageshadow="2"
     inkscape:pageopacity="0.0"
     inkscape:pagecheckerboard="0"
     inkscape:deskcolor="#d1d1d1" /><inkscape:clipboard
     style="font-variation-settings:normal;opacity:1;vector-effect:none;fill:#93a7ac;fill-opacity:1;stroke-width:11.23237795;stroke-linecap:round;stroke-linejoin:round;stroke-miterlimit:4;stroke-dasharray:none;stroke-dashoffset:0;stroke-opacity:1;-inkscape-stroke:none;stop-color:#000000;stop-opacity:1;stroke:#216778"
     min="406.40553,119.13018"
     max="716.11415,321.85039"
     geom-min="412.02172,124.74636"
     geom-max="710.49797,316.2342" /><g
     id="g1"
     transform="matrix(3.7795276,0,0,3.7795276,-406.40554,-119.13018)"><g
       id="g22"><path
         d="M 134.34633,33.005809 A 25.332175,25.332175 0 0 0 109.01408,58.338056 25.332175,25.332175 0 0 0 134.34633,83.6703 25.332175,25.332175 0 0 0 148.5,79.283527 25.332175,25.332175 0 0 1 137.32143,58.338056 25.332175,25.332175 0 0 1 148.54085,37.367707 25.332175,25.332175 0 0 0 134.34633,33.005809 Z"
         style="fill:#93a7ac;fill-rule:evenodd;stroke:#216778;stroke-width:2.9719;stroke-linecap:round;stroke-linejoin:round"
         id="path7" /><path
         d="M 148.54085,37.367707 A 25.332175,25.332175 0 0 1 159.67857,58.338056 25.332175,25.332175 0 0 1 148.5,79.283527 25.332175,25.332175 0 0 0 162.65367,83.6703 25.332175,25.332175 0 0 0 187.98592,58.338056 25.332175,25.332175 0 0 0 162.65367,33.005809 25.332175,25.332175 0 0 0 148.54085,37.367707 Z"
         style="fill:#dbe2e3;fill-rule:evenodd;stroke:#216778;stroke-width:2.9719;stroke-linecap:round;stroke-linejoin:round"
         id="path8" /><path
         d="M 148.54085,37.367707 A 25.332175,25.332175 0 0 0 137.32143,58.338056 25.332175,25.332175 0 0 0 148.5,79.283527 25.332175,25.332175 0 0 0 159.67857,58.338056 25.332175,25.332175 0 0 0 148.54085,37.367707 Z"
         style="fill:#93a7ac;fill-rule:evenodd;stroke:#216778;stroke-width:2.9719;stroke-linecap:round;stroke-linejoin:round"
         id="path9" /></g></g></svg>
