<?xml version="1.0" encoding="UTF-8" standalone="no"?>
<!-- Created with Inkscape (http://www.inkscape.org/) -->

<svg
   version="1.1"
   id="svg1"
   xml:space="preserve"
   width="309.70862"
   height="202.72021"
   xmlns:inkscape="http://www.inkscape.org/namespaces/inkscape"
   xmlns:sodipodi="http://sodipodi.sourceforge.net/DTD/sodipodi-0.dtd"
   xmlns="http://www.w3.org/2000/svg"
   xmlns:svg="http://www.w3.org/2000/svg"><defs
     id="defs1" /><sodipodi:namedview
     id="namedview1"
     pagecolor="#ffffff"
     bordercolor="#000000"
     borderopacity="0.25"
     inkscape:showpageshadow="2"
     inkscape:pageopacity="0.0"
     inkscape:pagecheckerboard="0"
     inkscape:deskcolor="#d1d1d1" /><inkscape:clipboard
     style="font-variation-settings:normal;opacity:1;vector-effect:none;fill:#93a7ac;fill-opacity:1;stroke-width:11.23237795;stroke-linecap:round;stroke-linejoin:round;stroke-miterlimit:4;stroke-dasharray:none;stroke-dashoffset:0;stroke-opacity:1;-inkscape-stroke:none;stop-color:#000000;stop-opacity:1;stroke:#216778"
     min="741.11414,119.13018"
     max="1050.8228,321.85039"
     geom-min="746.73033,124.74636"
     geom-max="1045.2066,316.2342" /><g
     id="g1"
     transform="matrix(3.7795276,0,0,3.7795276,-741.11415,-119.13018)"><g
       id="g23"><path
         d="M 222.90465,33.005809 A 25.332175,25.332175 0 0 0 197.5724,58.338056 25.332175,25.332175 0 0 0 222.90465,83.6703 25.332175,25.332175 0 0 0 237.05832,79.283527 25.332175,25.332175 0 0 1 225.87974,58.338056 25.332175,25.332175 0 0 1 237.09917,37.367707 25.332175,25.332175 0 0 0 222.90465,33.005809 Z"
         style="fill:#dbe2e3;fill-rule:evenodd;stroke:#216778;stroke-width:2.9719;stroke-linecap:round;stroke-linejoin:round"
         id="path16" /><path
         d="m 237.09917,37.367707 a 25.332175,25.332175 0 0 1 11.13772,20.970349 25.332175,25.332175 0 0 1 -11.17857,20.945471 25.332175,25.332175 0 0 0 14.15367,4.386773 25.332175,25.332175 0 0 0 25.33225,-25.332244 25.332175,25.332175 0 0 0 -25.33225,-25.332247 25.332175,25.332175 0 0 0 -14.11282,4.361898 z"
         style="fill:#93a7ac;fill-rule:evenodd;stroke:#216778;stroke-width:2.9719;stroke-linecap:round;stroke-linejoin:round"
         id="path17" /><path
         d="M 237.09917,37.367707 A 25.332175,25.332175 0 0 0 225.87974,58.338056 25.332175,25.332175 0 0 0 237.05832,79.283527 25.332175,25.332175 0 0 0 248.23689,58.338056 25.332175,25.332175 0 0 0 237.09917,37.367707 Z"
         style="fill:#93a7ac;fill-rule:evenodd;stroke:#216778;stroke-width:2.9719;stroke-linecap:round;stroke-linejoin:round"
         id="path18" /></g></g></svg>
